<?xml version="1.0" standalone="no"?>
<!DOCTYPE svg PUBLIC "-//W3C//DTD SVG 1.1//EN" "http://www.w3.org/Graphics/SVG/1.1/DTD/svg11.dtd" >
<svg xmlns="http://www.w3.org/2000/svg">
<metadata>
Created by FontForge 20120731 at Tue Dec 20 18:15:40 2016
 By admin
</metadata>
<defs>
<font id="iconfont" horiz-adv-x="1024" >
  <font-face 
    font-family="iconfont"
    font-weight="500"
    font-stretch="normal"
    units-per-em="1024"
    panose-1="2 0 6 3 0 0 0 0 0 0"
    ascent="896"
    descent="-128"
    x-height="792"
    bbox="0 -212 1087 896"
    underline-thickness="0"
    underline-position="0"
    unicode-range="U+0078-E680"
  />
<missing-glyph 
 />
    <glyph glyph-name=".notdef" 
 />
    <glyph glyph-name=".notdef" 
 />
    <glyph glyph-name=".null" horiz-adv-x="0" 
 />
    <glyph glyph-name="nonmarkingreturn" horiz-adv-x="341" 
 />
    <glyph glyph-name="glyph3" unicode="x" horiz-adv-x="1001" 
d="M281 543q-27 -1 -53 -1h-83q-18 0 -36.5 -6t-32.5 -18.5t-23 -32t-9 -45.5v-76h912v41q0 16 -0.5 30t-0.5 18q0 13 -5 29t-17 29.5t-31.5 22.5t-49.5 9h-133v-97h-438v97zM955 310v-52q0 -23 0.5 -52t0.5 -58t-10.5 -47.5t-26 -30t-33 -16t-31.5 -4.5q-14 -1 -29.5 -0.5
t-29.5 0.5h-32l-45 128h-439l-44 -128h-29h-34q-20 0 -45 1q-25 0 -41 9.5t-25.5 23t-13.5 29.5t-4 30v167h911zM163 247q-12 0 -21 -8.5t-9 -21.5t9 -21.5t21 -8.5q13 0 22 8.5t9 21.5t-9 21.5t-22 8.5zM316 123q-8 -26 -14 -48q-5 -19 -10.5 -37t-7.5 -25t-3 -15t1 -14.5
t9.5 -10.5t21.5 -4h37h67h81h80h64h36q23 0 34 12t2 38q-5 13 -9.5 30.5t-9.5 34.5q-5 19 -11 39h-368zM336 498v228q0 11 2.5 23t10 21.5t20.5 15.5t34 6h188q31 0 51.5 -14.5t20.5 -52.5v-227h-327z" />
    <glyph glyph-name="dilidingwei" unicode="&#xe602;" 
d="M506 553q5 1 13 0.5t28.5 -6.5t37 -17t31 -36t17.5 -60v-7t-1.5 -17t-5 -25t-12.5 -26.5t-22 -26t-35 -21t-51 -11.5q-5 -1 -13 -0.5t-28.5 7t-37 18.5t-31 38.5t-16.5 62.5v7.5t2 17.5t6 25.5t13.5 26t22 25.5t34 17.5t48.5 7.5zM506 683q5 0 14 -0.5t34 -5.5
t48.5 -13.5t52.5 -27.5t50 -45.5t37 -69t19 -95.5q0 -5 -0.5 -13.5t-6 -34t-14.5 -48.5t-28 -52t-45 -50t-67.5 -36.5t-93.5 -18.5q-5 0 -13 0.5t-32.5 5t-47.5 12.5t-51.5 27t-50 45t-38.5 69t-22 96h-127q-1 -3 -1 -8.5t1.5 -25t5.5 -41.5t15 -57t26.5 -72t42.5 -86
t61 -100q150 -201 179 -224q2 -2 6 -5.5t15 -9.5t22 -8t26.5 3t29.5 20q9 8 26 25t64 73.5t89 118.5q7 10 18.5 27.5t40 68t49.5 96.5t36.5 103.5t10.5 99.5q1 8 0.5 20.5t-6.5 49.5t-18 71t-40 77t-67 75.5t-103.5 57.5t-146.5 32v-126zM251 428q0 5 0.5 13.5t4.5 33
t12.5 47t27 51t44.5 50t69 38.5t97 22v126q-7 0 -20 -0.5t-50 -8t-71.5 -20.5t-77.5 -42t-75 -67.5t-57 -101.5t-31 -141h127z" />
    <glyph glyph-name="fenxiang" unicode="&#xe603;" 
d="M841 274q-44 0 -82 -19.5t-64 -53.5l-264 124q8 30 8 59t-8 59l264 124q26 -34 64 -53.5t82 -19.5q76 0 129.5 53.5t53.5 129t-53.5 129t-129.5 53.5t-129.5 -53.5t-53.5 -128.5q0 -20 6 -43l-264 -125q-31 44 -78.5 69t-102.5 25q-90 0 -154.5 -64t-64.5 -155t64.5 -155
t154.5 -64q55 0 102.5 25t78.5 69l264 -125q-6 -23 -6 -43q0 -75 53.5 -128.5t129.5 -53.5t129.5 53.5t53.5 129t-53.5 129t-129.5 53.5zM841.5 786q45.5 0 77.5 -32t32 -77.5t-32 -77.5t-77.5 -32t-78 32t-32.5 77.5t32.5 77.5t78 32zM219.5 238q-60.5 0 -103.5 43t-43 103
t43 103t103.5 43t103.5 -43t43 -103t-43 -103t-103.5 -43zM841.5 -18q-45.5 0 -78 32t-32.5 77.5t32.5 77.5t78 32t77.5 -32t32 -77.5t-32 -77.5t-77.5 -32z" />
    <glyph glyph-name="pingjia" unicode="&#xe604;" horiz-adv-x="1026" 
d="M836 596l76 76q8 7 20 10q-19 42 -58 67.5t-86 25.5h-630q-65 0 -111 -46t-46 -111v-616q0 -65 46 -111t111 -46h630q65 0 111.5 46t46.5 111v499l-8 -8zM191 546h413q6 0 9.5 -4t3.5 -9.5t-3.5 -9t-9.5 -3.5h-413q-5 0 -9 3.5t-4 9t4 9.5t9 4zM191 443h316q6 0 9.5 -3.5
t3.5 -9t-3.5 -9.5t-9.5 -4h-316q-5 0 -9 4t-4 9.5t4 9t9 3.5zM178 327.5q0 5.5 4 9.5t9 4h316q5 0 9 -4t4 -9.5t-4 -9t-9 -3.5h-316q-5 0 -9 3.5t-4 9zM443 101l34 137l102 -103zM605 161l-103 102l308 307l102 -102zM1015 621l-51 51q-13 13 -32 10q14 -31 14 -64v-117
l69 69q11 11 11 26t-11 25z" />
    <glyph glyph-name="icon47" unicode="&#xe605;" 
d="M512 -102l-63 61q-60 53 -94.5 83.5t-81.5 74.5t-73 73t-55.5 67t-44.5 68.5t-25 66t-10 70.5q0 101 71 170.5t175 69.5q57 0 110.5 -24.5t90.5 -67.5q37 43 90.5 67.5t110.5 24.5q104 0 175 -69.5t71 -170.5q0 -35 -10 -70.5t-25 -66t-44.5 -68.5t-55.5 -67t-73 -73
t-81.5 -74.5t-95.5 -83.5z" />
    <glyph glyph-name="daifukuan" unicode="&#xe606;" 
d="M610 599l-136 -238q-6 14 -24.5 45.5t-51 86t-60.5 106.5h-65l148 -252h-126v-51h147v-81h-147v-47h147v-121h59v121h141v47h-142v81h142v51h-116l147 252h-63zM229 -42q-24 0 -41 17t-17 41v605q0 24 17 41t41 17h493q24 0 41 -17t17 -41v-402q34 -4 65 -19v428
q0 47 -34 81.5t-82 34.5h-507q-48 0 -82 -34.5t-34 -81.5v-619q0 -48 34 -82t82 -34h376q-24 29 -35 65h-334v0zM756 181q-67 0 -114.5 -47.5t-47.5 -115t47.5 -115t114.5 -47.5t114.5 47.5t47.5 115t-47.5 115t-114.5 47.5zM756 -104q-51 0 -87 36t-36 87t36 86.5t87 35.5
t87 -35.5t36 -86.5t-36 -87t-87 -36zM774 119h-35v-86v-18v-17h95v35h-60v86z" />
    <glyph glyph-name="zan" unicode="&#xe62d;" 
d="M938 319q1 -5 -1 -11l-73 -322q-1 -6 -5 -11q-12 -25 -35 -39q-25 -16 -54 -16v0l-469 1q-3 -1 -5 -1t-5 1h-125q-3 -1 -5 -1q-14 0 -24 10t-10 24v406q0 14 10 24t24 10q2 0 4 -1l112 1v0q78 6 132 62t56 135v8q0 41 28.5 70t69.5 29q35 0 61.5 -21.5t34.5 -54.5v0
q9 -39 9 -78q0 -60 -20 -116l189 -1h5q53 -2 81 -47q18 -28 15 -61zM195 -12h67v338h-67v-338v0zM866 344q-10 17 -29 16v0v0h-239q-14 0 -23.5 10t-9.5 24q0 8 3 15v0q20 38 29 82v0q1 2 1.5 6t1.5 17.5t1 29.5q0 12 -1 25.5t-2 20.5l-2 7v0v0.5v0.5q0 13 -9 22.5
t-22.5 9.5t-22.5 -9.5t-9 -22.5v-2v0q0 -26 -5 -54q-3 -15 -8 -31v0q-22 -65 -72.5 -112.5t-117.5 -64.5v-346h440h5q7 1 12 4q9 6 13 15v0l70 310v0q4 15 -4 27v0z" />
    <glyph glyph-name="jiazu" unicode="&#xe646;" 
d="M916 328l-10 3q-82 19 -88 31q-1 3 5 16q48 96 55 176.5t-27 136.5q-23 38 -62 58.5t-87 20.5q-44 0 -80 -16q-48 31 -109 31q-60 0 -107 -30q-37 15 -83 15q-48 0 -87 -20.5t-63 -58.5q-34 -56 -27 -136.5t55 -176.5q1 -3 2.5 -5.5t1.5 -4.5t0.5 -3.5t0.5 -2v-0.5v0v0
q-6 -12 -87 -31l-11 -3q-25 -6 -43.5 -16.5t-29.5 -26t-18 -28.5t-9.5 -33t-3 -31.5t0.5 -30.5v-12q0 -16 11.5 -27.5t27.5 -11.5h113v-16v-18q0 -17 11.5 -28.5t28.5 -11.5h632q16 0 27.5 11.5t11.5 28.5v18v16h112q17 0 28.5 11.5t11.5 27.5v12q0 19 -0.5 30.5t-3 31.5
t-9.5 33t-17.5 28.5t-29.5 26t-44 16.5zM83 190q2 31 10.5 43.5t33.5 18.5l10 2q30 8 46 12.5t38 13t35 21t21 28.5q17 37 -6 84q-38 76 -46 137.5t15 99.5q26 42 83 42q9 0 21 -2q-36 -63 -26.5 -151.5t62.5 -191.5q8 -18 5 -24q-8 -18 -109 -42l-5 -2q-87 -21 -106 -89
h-82v0zM236 116q0 49 9 64t45 23l5 2q35 8 53.5 13.5t44 15.5t40.5 24t24 32q19 41 -8 92q-44 86 -53 157.5t18 116.5q31 51 99 51q67 0 98 -50q27 -44 18 -116t-53 -159q-26 -51 -7 -92q9 -19 24.5 -32.5t41 -24t44 -15.5t54.5 -14l3 -1q36 -8 45 -23t9 -64h-554zM861 190
q-20 68 -106 89l-4 1q-102 25 -110 43q-4 6 5 24q52 104 61 192.5t-25 150.5q10 2 20 2q56 0 82 -42q23 -38 15 -99.5t-46 -137.5q-23 -47 -6 -84q8 -16 21 -28.5t35.5 -21t38 -13t45.5 -12.5l10 -2q25 -6 34 -18.5t10 -43.5h-80z" />
    <glyph glyph-name="sousuo" unicode="&#xe60d;" horiz-adv-x="1025" 
d="M1019 -185l-282 282q0 1 -0.5 1h-0.5q54 58 84 132.5t30 156.5q0 115 -57 213t-155 155t-213 57t-213 -57t-155 -155t-57 -213t57 -213t155 -155t213 -57q82 0 156.5 30t132.5 84v-0.5t1 -0.5l282 -282q4 -5 11 -5t11 5q12 11 0 22zM425 -6q-107 0 -197.5 52.5t-143 143
t-52.5 197.5t52.5 197.5t143 143t197.5 52.5t197.5 -52.5t143 -143t52.5 -197.5t-52.5 -197.5t-143 -143t-197.5 -52.5z" />
    <glyph glyph-name="jiantou" unicode="&#xe607;" 
d="M300 748l456 -447l-456 -446l-35 34l421 412l-421 412z" />
    <glyph glyph-name="jiantou1" unicode="&#xe608;" 
d="M273 300l432 431l34 -34l-431 -431zM705 -130l-432 431l35 34l431 -431z" />
    <glyph glyph-name="zhengque" unicode="&#xe609;" 
d="M512 749q-91 0 -173.5 -35t-142.5 -95t-95.5 -143t-35.5 -174t35.5 -174t95.5 -143t142.5 -95.5t173.5 -35.5t174 35.5t143 95.5t95.5 143t35.5 174t-35.5 174t-95.5 143t-143 95t-174 35v0zM512 -90q-106 0 -196 52.5t-142.5 143t-52.5 196.5t52.5 196.5t142.5 142.5
t196.5 52t196.5 -52t142.5 -142.5t52.5 -196.5t-52.5 -196.5t-142.5 -143t-197 -52.5v0zM459 101l-210 203l52 54l154 -148l265 292l56 -50zM459 101z" />
    <glyph glyph-name="zhifubao" unicode="&#xe60a;" 
d="M1024 111v504q0 81 -58 138.5t-139 57.5h-630q-81 0 -139 -57.5t-58 -138.5v-630q0 -82 58 -139.5t139 -57.5h630q72 0 126.5 46t67.5 116q-283 122 -397 176q-71 -86 -147.5 -129.5t-177.5 -43.5q-105 0 -169 56.5t-55 137.5q2 24 9.5 46t26.5 47t46.5 42t74.5 26t107 3
q23 -2 43 -4.5t40 -6.5t32.5 -7t33.5 -9.5t30.5 -9.5t35 -11.5t35.5 -11.5q35 64 57 139h-398v40h197v70h-240v44h240v102q0 2 1 4.5t6 7t13 4.5h98v-118h256v-44h-256v-70h209q-29 -116 -85 -213q27 -10 111 -36.5t155 -48l71 -21.5v0v0zM284 20q-36 0 -65 7.5t-46.5 19
t-30.5 26t-17.5 29.5t-7 28.5t0.5 23.5q7 34 42.5 62.5t92.5 28.5q131 0 284 -75q-55 -72 -120 -111t-133 -39v0z" />
    <glyph glyph-name="shoucang" unicode="&#xe60b;" 
d="M954 437q-2 -20 -2 -21q-4 -54 -29 -105q-38 -78 -99 -148q-56 -66 -136 -139q-65 -59 -142 -120q-19 -16 -41 -14q-15 2 -27 12q-145 115 -247 222q-71 76 -114 152q-33 58 -42 104q-1 2 -6 45l-1 5v25l1 5q0 1 0.5 9t1.5 12q12 81 60 140q67 82 168 91q52 5 103 -15
q55 -22 96 -69q1 -1 13 -16l3 4q34 44 80 69q71 38 148 25q88 -15 148 -88q55 -67 62 -156q0 -1 2 -21v-8zM899 441q-2 24 -2 25q-8 72 -54 123q-65 72 -158 63q-62 -7 -111 -55q-29 -28 -47 -72q-5 -11 -16 -11t-16 11q-16 38 -38 62q-56 63 -134 65q-76 3 -130 -49
q-88 -84 -65 -208q7 -35 35 -85q40 -72 112 -148q95 -99 232 -209q4 -3 8 0q73 59 134 114q80 73 134 136q60 69 94 143q21 44 22 95z" />
    <glyph glyph-name="fenlei" unicode="&#xe654;" 
d="M801 -134zM88 451zM123 707q-23 0 -39.5 -16t-16.5 -39.5t16.5 -39.5t39.5 -16t39.5 16t16.5 39.5t-16.5 39.5t-39.5 16v0zM302 618h625q14 0 23.5 10t9.5 23.5t-9.5 23.5t-23.5 10h-625q-14 0 -24 -10t-10 -23.5t10 -23.5t24 -10v0zM123 373q-23 0 -39.5 -16.5
t-16.5 -39.5t16.5 -39.5t39.5 -16.5t39.5 16.5t16.5 39.5t-16.5 39.5t-39.5 16.5v0zM927 350h-625q-14 0 -24 -9.5t-10 -23.5t10 -24t24 -10h625q14 0 23.5 10t9.5 24t-9.5 23.5t-23.5 9.5v0zM123 15q-23 0 -39.5 -16t-16.5 -39.5t16.5 -39.5t39.5 -16t39.5 16t16.5 39.5
t-16.5 39.5t-39.5 16v0zM927 -7h-625q-14 0 -24 -10t-10 -23.5t10 -23.5t24 -10h625q14 0 23.5 10t9.5 23.5t-9.5 23.5t-23.5 10v0zM927 0z" />
    <glyph glyph-name="lianjieline54" unicode="&#xe655;" 
d="M558 368q-8 8 -19.5 8t-19.5 -8t-8 -19.5t8 -19.5l21 -21q34 -33 34 -80.5t-34 -80.5l-201 -201q-33 -34 -80.5 -34t-80.5 34l-21 20q-33 34 -33 81t33 80l165 165q8 8 8 19.5t-8 19.5t-19.5 8t-19.5 -8l-165 -165q-49 -49 -49 -119t49 -120l21 -20q49 -50 119.5 -50
t119.5 50l201 201q50 49 50 119t-50 120zM905 673l-20 21q-50 49 -120 49t-119 -49l-202 -202q-49 -49 -49 -119t49 -119l21 -21q8 -8 19.5 -8t19.5 8t8 19.5t-8 19.5l-21 21q-33 33 -33 80t33 80l202 202q33 33 80 33t81 -33l20 -21q34 -33 34 -80.5t-34 -80.5l-164 -164
q-8 -8 -8 -19.5t8 -20t19.5 -8.5t19.5 9l164 164q50 49 50 119.5t-50 119.5z" />
    <glyph glyph-name="shouji" unicode="&#xe60c;" 
d="M682 764h-340q-32 0 -55 -22.5t-23 -54.5v-774q0 -32 23 -54.5t55 -22.5h340q32 0 55 22.5t23 54.5v774q0 32 -23 54.5t-55 22.5zM466 702h92q7 0 11.5 -4.5t4.5 -10.5t-4.5 -10.5t-11.5 -4.5h-92q-7 0 -11.5 4.5t-4.5 10.5t4.5 10.5t11.5 4.5zM512 -133
q-19 0 -32.5 13.5t-13.5 32.5t13.5 32.5t32.5 13.5t32.5 -13.5t13.5 -32.5t-13.5 -32.5t-32.5 -13.5zM729 -10h-434v620h434v-620z" />
    <glyph glyph-name="youhuijuan" unicode="&#xe600;" 
d="M810 330q10 3 15 11q4 7 3 16q0 7 -5 16q-6 8 -15 12q-11 4 -16 12t-4 16q1 9 6 15q6 7 14.5 10t12.5 11t4 16q-1 8 -5 14q-5 7 -13 7h-514v-496h509q8 0 12 7q4 6 5 14t-2.5 16.5t-10.5 12.5q-12 6 -17 15q-6 8 -5.5 17t6.5 17q7 8 18 11q10 3 13 11q4 7 4 16
q-1 10 -6 18.5t-14 12.5q-20 10 -19 26q1 17 25 29q8 4 12 12t3.5 17t-5.5 17t-14 12q-11 4 -17 13q-5 9 -4 17q0 10 6 18q7 8 18 11zM621 350q-1 -2 -11 -15q-3 -4 -9.5 -13t-9.5 -12q-9 -12 -18 -25q-3 -4 -10 -14q-2 -5 3 -6t10 -1v0h33q5 0 8.5 -4t3.5 -8v-24
q0 -7 -10 -7h-57q-4 0 -8 -2q-3 -2 -3 -6q0 -5 1 -8v-7q0 -7 10 -4h56q10 0 10 -9v-22q0 -10 -14 -10h-12q-5 0 -16 -1h-15h-9q-9 0 -9 -10v-33v-7q0 -5 -8 -5h-31q-13 0 -13 11q0 1 1 17q1 12 0 18q0 5 -1 6q-1 2 -6 2h-59q-12 0 -12 13q0 3 -1 7t0 9.5t3 9.5q2 3 7 2h12
h20h19h10h5q1 0 1 5v19q0 5 -11 5h-56q-5 0 -7.5 0.5t-2.5 5.5v12q0 8 -1 12q-2 6 2.5 10t12.5 4q8 -1 17 -1q9 1 15 1h11q6 0 4 4q-2 3 -12 15q-6 8 -20 26q-12 16 -29 37q-7 11 3 18q5 3 10 7q5 5 12 9q10 6 19 -11q3 -5 11 -14q11 -15 17 -23q8 -11 16 -21q7 -8 9 -12
q2 -3 7.5 -4t7.5 3q0 1 8 12q9 13 16 23q14 21 16 25q4 5 10 14q5 7 8 9q4 2 12 -1q5 -2 10 -6q6 -4 8 -6q11 -11 6 -19zM326 610h-134q-17 0 -32 -17t-15 -37v-12v-1v-1v-11h181v79zM112 486q-31 0 -39 -11q-9 -12 -9 -39v0v-105q0 -10 5 -15t15 -7q14 -1 26 -14t12 -36
q0 -15 -5 -25q-4 -10 -11 -17t-14 -10t-11 -3q-10 -2 -13.5 -7.5t-3.5 -15.5v-143q0 -28 10.5 -38t37.5 -9h28q19 -1 43 -1h53v496h-124zM924 427q5 7 16 11q9 4 14.5 13t5.5 19.5t-5.5 21t-15.5 16.5q-8 4 -11 12q-3 9 -3 17q1 9 5 16q5 8 11 13q7 5 9 12.5t0.5 14.5t-6 12
t-11.5 5h-547v-78h466q14 0 23 -8q8 -8 11 -18q4 -13 3 -28q-2 -16 -18 -25q-8 -5 -12 -14q-5 -9 -5 -18.5t5 -19.5q4 -9 14 -14q8 -5 12 -13q3 -8 3 -15q-1 -9 -5 -15q-4 -7 -9 -11q-9 -5 -13 -15q-4 -9 -4 -19.5t4 -17.5q5 -8 13 -12q5 -3 8 -10q3 -9 3 -17q0 -9 -4 -17
q-3 -8 -11 -11q-6 -3 -9 -9.5t-3.5 -16t3.5 -17.5q3 -8 11 -12q11 -7 16 -17t0 -24q-2 -4 -5 -7t-4.5 -5.5t-1 -3.5t5.5 -1h53q10 0 13 6q4 6 4 14t-3 16q-4 8 -7 11q-20 14 -20 30q0 14 20 26q5 4 8 13t2.5 19t-4.5 19t-12 12t-11 10q-4 8 -4 15.5t4 14.5q3 6 11 8
q8 1 13 10q4 8 5 18q0 10 -4 20t-14 16t-15 14q-4 9 -3 18q0 9 5 16z" />
    <glyph glyph-name="erweima" unicode="&#xe65c;" 
d="M422 745h-284q-26 0 -44 -18.5t-18 -44.5v-283q0 -26 18 -44.5t44 -18.5h284q26 0 44.5 18.5t18.5 44.5v283q0 26 -18.5 44.5t-44.5 18.5zM422 390h-284q-9 0 -9 9v283q0 9 9 9h284q9 0 9 -9v-283v0q0 -9 -9 -9zM294 585h-28q-12 0 -21 -9t-9 -22v-28q0 -12 9 -21t21 -9
h28q13 0 21.5 9t8.5 21v28q0 13 -8.5 22t-21.5 9zM922 -46h-28q-13 0 -21.5 -9t-8.5 -21v-28q0 -13 8.5 -21.5t21.5 -8.5h28q13 0 21.5 8.5t8.5 21.5v28q0 12 -8.5 21t-21.5 9zM422 275h-284q-26 0 -44 -18.5t-18 -44.5v-284q0 -26 18 -44t44 -18h284q26 0 44.5 18t18.5 44
v284q0 26 -18.5 44.5t-44.5 18.5zM422 -81h-284q-9 0 -9 9v284q0 9 9 9h284q9 0 9 -9v-284v0q0 -9 -9 -9zM294 114h-28q-12 0 -21 -9t-9 -21v-28q0 -13 9 -22t21 -9h28q13 0 21.5 9t8.5 22v28q0 12 -8.5 21t-21.5 9zM606 336h284q25 0 43.5 18.5t18.5 44.5v283
q0 26 -18.5 44.5t-43.5 18.5h-284q-26 0 -44.5 -18.5t-18.5 -44.5v-283q0 -26 18.5 -44.5t44.5 -18.5zM597 682q0 9 9 9h284q9 0 9 -9v-283q0 -4 -3 -6.5t-6 -2.5h-284q-9 0 -9 9v283zM734 496h28q12 0 21 9t9 21v28q0 13 -9 22t-21 9h-28q-13 0 -22 -9t-9 -22v-28
q0 -12 9 -21t22 -9zM840 37h-131v27v0v1q0 11 -8 18.5t-19 7.5v0h-80q-3 0 -5 -1v37h54q11 0 19 7.5t8 19t-8 19t-19 7.5h-54v32q0 9 9 9h144q9 0 9 -9v-74v0v-41q0 -12 7.5 -19.5t19 -7.5t19 7.5t7.5 19.5v40v20v55q0 26 -18.5 44.5t-43.5 18.5h-144q-26 0 -44.5 -18.5
t-18.5 -44.5v-284q0 -26 18.5 -44t44.5 -18h101v0h16q11 0 19 7.5t8 18.5t-8 19t-19 8h-20h-41h-56q-9 0 -9 9v109h5h54v-64q0 -11 7.5 -18.5t18.5 -7.5t19 7.5t8 18.5v10h131q11 0 19 8t8 19t-8 19t-19 8zM899 248v-201q0 -11 7.5 -18.5t19 -7.5t19 7.5t7.5 18.5v201
q0 11 -7.5 19t-19 8t-19 -8t-7.5 -19z" />
    <glyph glyph-name="star" unicode="&#xe60e;" horiz-adv-x="1026" 
d="M40 314l159 -173l-27 -245l-1 -2q-1 -49 25 -77q18 -20 46 -24t58 10l212 121l212 -121q24 -11 47 -11q34 0 57 25q26 28 25 77l-28 247l157 170l3 3q34 47 18.5 95t-70.5 63l-237 40l-103 218l-2 3q-32 51 -82 51q-47 0 -80 -47l-122 -225l-217 -38q-54 -16 -69.5 -64.5
t19.5 -95.5v0zM71 392q6 19 33 27l237 42l133 244q16 23 36 22t35 -24l115 -242l260 -43q27 -8 33 -27t-10 -42l-175 -188l31 -270q1 -24 -10 -35q-13 -15 -42 -2l-235 134l-235 -134q-29 -13 -42 2q-11 11 -10 35l31 270l-175 188q-16 23 -10 43v0z" />
    <glyph glyph-name="weidenglutouxiang" unicode="&#xe612;" 
d="M512 812q-104 0 -199 -40.5t-163.5 -109t-109 -163.5t-40.5 -199t40.5 -199t109 -163.5t163.5 -109t199 -40.5t199 40.5t163.5 109t109 163.5t40.5 199t-40.5 199t-109 163.5t-163.5 109t-199 40.5v0zM836 -24q-21 6 -74 21.5t-88.5 26.5t-43.5 16q-19 12 -19 110l19 16
q4 43 12 58t17.5 38t14.5 38l5 16q18 13 18 37q0 10 -4.5 19t-8.5 13l-5 4q7 65 7 111q0 71 -43 109t-124 38q-84 0 -134.5 -36.5t-50.5 -110.5q0 -21 3.5 -48.5t7.5 -44.5l3 -18q-18 -13 -18 -36q0 -11 4.5 -20t9.5 -13l4 -4q22 -67 37 -92q4 -7 7 -21t4 -25l2 -12l18 -16
q1 -10 1.5 -26t-3.5 -46t-16 -38q-9 -6 -47.5 -17.5t-89 -26.5t-71.5 -22q-65 64 -101 148t-36 178q0 93 36.5 178t98 146.5t146.5 98t178 36.5t178 -36.5t146.5 -98t98 -146.5t36.5 -178t-35.5 -177t-99.5 -147v0zM836 -24z" />
    <glyph glyph-name="yuan" unicode="&#xe613;" 
d="M512 300zM128 299.5q0 104.5 51.5 193t140 139.5t192.5 51t192.5 -51t139.5 -139.5t51 -193t-51 -192.5t-139.5 -139.5t-192.5 -51.5t-192.5 51.5t-140 139.5t-51.5 192.5z" />
    <glyph glyph-name="daipingjia" unicode="&#xe615;" 
d="M256 -51q-30 0 -51 21.5t-21 50.5v500q0 27 17.5 47t43.5 24v0l14 1h1h289q5 0 8.5 -3.5t3.5 -8.5t-3.5 -8.5t-8.5 -3.5h-289h-1l-14 -1v0q-16 -3 -27 -16.5t-11 -30.5v-500q0 -20 14.5 -34t34.5 -14h537q20 0 34 14t14 34v280q0 5 3.5 8.5t8.5 3.5t8.5 -3.5t3.5 -8.5
v-280q0 -29 -21 -50.5t-51 -21.5h-537zM387 88q-12 0 -18 5q-7 8 -4 32q3 15 9 40q7 27 15 53l1 3l349 349l40 48v0q10 10 24 10q17 0 30 -13l58 -58q11 -11 12 -26q2 -16 -9 -27l-1 -1l-46 -40l-349 -350h-3q-79 -25 -108 -25zM410 206q-15 -48 -20 -79l-4 -17l18 3
q30 5 78 20l19 6l-86 86zM438 236l74 -74l293 292l-63 63v0v1l-11 11zM752 550l1 -6q1 -6 6 -10l51 -52q5 -4 10 -5l6 -1l5 4l50 44l-2 7q-1 5 -5 9l-58 59q-4 3 -9 5l-7 2z" />
    <glyph glyph-name="star1" unicode="&#xe616;" horiz-adv-x="1048" 
d="M253 -200q-14 0 -25 8q-21 16 -17 42l43 299l-217 211q-19 19 -11 44.5t34 29.5l296 45l129 273q11 24 38 24v0q26 0 37 -24l133 -271l295 -42q26 -4 34 -29.5t-11 -44.5l-213 -213l39 -295q2 -5 2 -11q0 -18 -12.5 -30.5t-29.5 -12.5v0q-11 0 -20 5l-250 140l-254 -143
q-10 -5 -20 -5v0z" />
    <glyph glyph-name="daifukuan1" unicode="&#xe64c;" 
d="M530 -35h-291q-32 0 -54.5 22.5t-22.5 54.5v565q0 32 22.5 54.5t54.5 22.5h477q32 0 54.5 -22.5t22.5 -54.5v-349q0 -5 -3.5 -8.5t-9 -3.5t-9 3.5t-3.5 8.5v349q0 22 -15.5 37t-36.5 15h-477q-22 0 -37.5 -15t-15.5 -37v-565q0 -22 15.5 -37t37.5 -15h291q6 0 9.5 -4
t3.5 -9t-3.5 -8.5t-9.5 -3.5zM718.5 -84q-59.5 0 -101.5 42t-42 101.5t42 102t101.5 42.5t101.5 -42.5t42 -102t-42 -101.5t-101.5 -42zM718.5 179q-49.5 0 -84 -35t-34.5 -84t34.5 -84t84 -35t84.5 35t35 84t-35 84t-84.5 35zM719 48q-5 0 -9 3.5t-4 8.5v74q0 5 4 8.5
t9 3.5t8.5 -3.5t3.5 -8.5v-74q0 -5 -3.5 -8.5t-8.5 -3.5zM778 48h-60q-5 0 -8.5 3.5t-3.5 8.5t3.5 8.5t8.5 3.5h60q5 0 9 -3.5t4 -8.5t-4 -8.5t-9 -3.5zM462 350q-4 0 -8 3q-9 8 -2 17l125 163q8 10 17.5 2.5t2.5 -17.5l-125 -163q-4 -5 -10 -5zM462 110q-5 0 -8.5 4t-3.5 9
v236l-123 159q-7 10 2.5 17.5t17.5 -2.5l125 -163q2 -3 2 -7v-240q0 -5 -3.5 -9t-8.5 -4zM590 347h-256q-5 0 -9 4t-4 9t4 8.5t9 3.5h256q5 0 9 -3.5t4 -8.5t-4 -9t-9 -4zM610 255h-296q-5 0 -9 3.5t-4 8.5t4 8.5t9 3.5h296q5 0 9 -3.5t4 -8.5t-4 -8.5t-9 -3.5z" />
    <glyph glyph-name="shanchu" unicode="&#xe618;" 
d="M128 627q0 20 14.5 34.5t34.5 14.5h247v49q0 20 14.5 34.5t34.5 14.5h99q20 0 34.5 -14.5t14.5 -34.5v-49h247q20 0 34.5 -14.5t14.5 -34.5v-49h-789v49zM868 480v-98v-507q0 -20 -14.5 -34.5t-34.5 -14.5h-592q-21 0 -35.5 14.5t-14.5 34.5v507v98v49h691v-49zM375 382
q0 20 -14.5 34.5t-35 14.5t-35 -14.5t-14.5 -34.5v-409q0 -20 14.5 -34.5t35 -14.5t35 14.5t14.5 34.5v409v0zM572 382q0 20 -14.5 34.5t-35 14.5t-35 -14.5t-14.5 -34.5v-409q0 -20 14.5 -34.5t35 -14.5t35 14.5t14.5 34.5v409zM769 382q0 20 -14.5 34.5t-34.5 14.5
t-34.5 -14.5t-14.5 -34.5v-409q0 -20 14.5 -34.5t34.5 -14.5t34.5 14.5t14.5 34.5v409z" />
    <glyph glyph-name="xiangshang" unicode="&#xe619;" 
d="M984 76.5q0 -20.5 -14.5 -35t-35 -14.5t-34.5 14l-379 380l-385 -385q-14 -14 -34.5 -14t-35 14t-14.5 34.5t15 34.5l419 420q14 14 34.5 14t35.5 -14l413 -414q15 -14 15 -34.5z" />
    <glyph glyph-name="p-return" unicode="&#xe61a;" horiz-adv-x="1114" 
d="M562.5 150q-11.5 0 -15.5 11l-1 3v2v119h-122h-2q-12 4 -12 16t11 15l3 1h122v67h-122h-2q-12 4 -12 16t12 15l2 1h3h119v41l-123 120l-1 3q-6 10 2 19q4 5 12 5q6 0 10 -4l117 -114l111 109q4 4 11 4t11.5 -5t4.5 -12q0 -4 -3 -7l-1 -2l-2 -2l-116 -115v-40h120
q6 0 11 -4.5t5 -11.5q0 -12 -11 -16h-3h-2h-120v-67h120q6 0 11 -4.5t5 -11.5q0 -12 -11 -15l-3 -1h-2h-120v-121l-1 -3q-4 -11 -15.5 -11zM563 -63q-90 0 -171.5 34t-144.5 97t-97 145t-34 171t34 171t97 145t144.5 97t171.5 34q87 0 167.5 -33t143 -94t97.5 -140t37 -166
l1 -27l47 46q5 5 12.5 5t13 -5.5t5.5 -13t-5 -12.5l-86 -84q-5 -5 -13 -5h-2q-1 0 -2 1h-1h-2h-1q-7 0 -12 5l-83 83q-5 5 -5 13t5.5 13t13 5t12.5 -5l65 -65v28v1v3q0 111 -54.5 205t-149 149t-205 55t-205 -55t-149 -149t-54.5 -205t54.5 -205t149 -149t205.5 -55
q91 0 173 38.5t141 109.5v0l1 1q6 9 16 9q8 0 13.5 -5.5t5.5 -13.5q0 -4 -2 -8v-1h-1q-2 -4 -5 -6l-1 -1l-1 -1q-64 -76 -153 -118t-187 -42v0z" />
    <glyph glyph-name="shouhuo" unicode="&#xe65b;" 
d="M1019 612l-69 228q-7 23 -26.5 38t-41.5 15h-740q-22 0 -41.5 -15t-26.5 -38l-70 -228q-4 -15 -4 -42v-623q0 -29 20.5 -49.5t49.5 -20.5h884q29 0 49.5 20.5t20.5 49.5v623q0 27 -5 42zM123 825q2 7 8 12t11 5h740q5 0 11 -5t8 -12l68 -224h-914zM972 -53
q0 -8 -5.5 -13.5t-12.5 -5.5h-884q-7 0 -13 5.5t-6 13.5v603h921v-603zM147 266h358q10 0 18 7.5t8 18t-8 18t-18 7.5h-358q-11 0 -18.5 -7.5t-7.5 -18t7.5 -18t18.5 -7.5zM394 181h-244q-10 0 -17.5 -7.5t-7.5 -18t7.5 -18t17.5 -7.5h244q11 0 18.5 7.5t7.5 18t-7.5 18
t-18.5 7.5zM681 137q8 -8 20 -7h1q11 0 19 7l196 197q8 8 8 18.5t-8 17.5q-7 8 -18 8t-18 -8l-180 -180l-80 79q-7 7 -18 7t-18 -7t-7 -18t7 -18z" />
    <glyph glyph-name="kongxinyuan" unicode="&#xe658;" 
d="M512 896q-139 0 -257 -68.5t-186.5 -186.5t-68.5 -257t68.5 -257t186.5 -186.5t257 -68.5t257 68.5t186.5 186.5t68.5 257t-68.5 257t-186.5 186.5t-257 68.5zM512 855q96 0 183 -37t150.5 -100.5t100.5 -150.5t37 -183t-37 -183t-100.5 -150.5t-150.5 -100.5t-183 -37
t-183 37t-150.5 100.5t-100.5 150.5t-37 183t37 183t100.5 150.5t150.5 100.5t183 37z" />
    <glyph glyph-name="nongyeyinxing" unicode="&#xe61c;" 
d="M553 -127q-108 -7 -206.5 26.5t-170 97t-117.5 150.5t-55 184q-8 87 10.5 167.5t56.5 143t90.5 112.5t112 81.5t121.5 43.5l1 -16v-139v-137q0 -10 1 -15q3 -21 24 -21h26h26q25 0 25 -25v-139q-28 6 -30 6h-98q-16 0 -22.5 6t-6.5 22v174v132l-1 14q-86 -41 -144 -116
q-97 -125 -82 -279q7 -80 42 -147.5t84.5 -111t105 -69t108.5 -30.5q1 11 1 12v198q0 9 -3 11.5t-11 2.5q-23 -1 -77 0q-22 0 -22 20v143q31 -5 33 -5q6 0 96 -1q14 0 20.5 -6t6.5 -21v-120q0 -7 2.5 -9.5t10 -2.5t10.5 2.5t3 9.5q-1 31 -1 119q0 16 6.5 22t22.5 6
q94 1 97 1q2 0 31 5v-9v-127q0 -16 -6 -21.5t-21 -5.5h-75q-11 0 -11 -11v-204q0 -11 12 -9q120 22 207 105t114 202q30 130 -28 254.5t-177 185.5q-1 0 -15 6v-21v-295q0 -20 -6 -26t-25 -6h-96q-2 0 -29 -7l-1 4v134q0 15 6.5 21t21.5 6h24h25q22 0 26 22v14v279v14
q71 -13 140 -53.5t126 -101t93.5 -147.5t38.5 -184q2 -102 -35 -195.5t-100.5 -162t-151 -112t-184.5 -51.5zM481 576h53q19 0 26 6.5t7 25.5v269v15h-103q-9 0 -9 -12v-137v-141q0 -25 26 -26z" />
    <glyph glyph-name="dingdan" unicode="&#xe64e;" 
d="M817 792h-56q-13 0 -23 -7t-10 -18q0 -12 10.5 -21.5t22.5 -9.5h56q25 0 40.5 -15.5t15.5 -40.5v-643q0 -25 -15.5 -40.5t-40.5 -15.5h-602q-26 0 -48 16t-22 40v643q0 25 15.5 40.5t40.5 15.5h70q22 0 22 31q0 25 -22 25h-70q-56 0 -84 -31t-28 -82v-636q0 -53 31 -85.5
t87 -32.5h604q57 0 87.5 30t30.5 88v636q0 50 -29.5 81.5t-82.5 31.5v0zM271 540q0 -12 8.5 -20.5t20.5 -8.5h419q12 0 20.5 8.5t8.5 20t-8.5 20t-20.5 8.5h-419q-12 0 -20.5 -8.5t-8.5 -19.5v0zM718 414h-418q-12 0 -20.5 -8.5t-8.5 -20t8.5 -20t20.5 -8.5h419
q12 0 20.5 8.5t8.5 19.5q-1 13 -9.5 21t-20.5 8v0zM718 246h-418q-12 0 -20.5 -8.5t-8.5 -20t8.5 -20t20.5 -8.5h419q12 0 20.5 8.5t8.5 20.5q-1 12 -9.5 20t-20.5 8v0zM413 722h195q16 0 28.5 14.5t12.5 34t-12.5 34t-30.5 14.5h-193q-18 0 -30.5 -14.5t-12.5 -34t12.5 -34
t30.5 -14.5v0z" />
    <glyph glyph-name="dingdan1" unicode="&#xe61f;" 
d="M316 777v-40h-6q-41 0 -44 -1q-27 -2 -46.5 -23t-20.5 -48q-1 -8 -1 -16v-226v-248q0 -28 9 -46q29 -58 92 -58h426q34 0 59.5 18t35.5 49q5 16 5 34q1 156 0 484q0 28 -13.5 48.5t-38.5 28.5q-10 3 -27 4h-32q-1 0 -6 1v38h39.5t37.5 -6t35 -19q40 -32 44 -83
q1 -9 1 -26v-469q0 -66 -48 -107q-39 -34 -92 -34h-426q-89 1 -128 83q-11 24 -11 56q-1 370 0 486q0 69 59 104q20 12 38 13q5 1 59 3zM404 830h216v-35h-90v-37h72v-36h-180v36h72v37h-90v35zM326 546v33q0 2 3 3h4h358h7v-36h-372zM326 422v35h372v-35h-372zM698 332v-35
h-372v35h372z" />
    <glyph glyph-name="gouwuche-copy" unicode="&#xe61d;" 
d="M992 688q-30 39 -74 39h-741l-7 58q-5 33 -30 55t-60 22h-42q-9 0 -16 -6.5t-7 -16t7 -16.5t16 -7h42q16 0 29.5 -9t15.5 -26l86 -660q4 -32 29 -51.5t61 -19.5h572q10 0 16.5 6.5t6.5 15.5t-6.5 15.5t-16.5 6.5h-572q-18 0 -30.5 9.5t-14.5 25.5l-7 55h570q32 0 56 16.5
t31 45.5l100 366q11 43 -14 76zM962 624l-99 -367q-7 -27 -44 -27h-576l-60 451h735q23 0 38 -20q12 -15 6 -37zM382 -37q0 -20 -14.5 -34.5t-34.5 -14.5t-34.5 14.5t-14.5 34.5t14.5 34.5t34.5 14.5t34.5 -14.5t14.5 -34.5zM854 -37q0 -20 -14.5 -34.5t-34.5 -14.5
t-34.5 14.5t-14.5 34.5t14.5 34.5t34.5 14.5t34.5 -14.5t14.5 -34.5z" />
    <glyph glyph-name="queren" unicode="&#xe60f;" 
d="M512 -96q-98 0 -186.5 38t-153 102.5t-102.5 153t-38 186.5t38 186.5t102.5 153t153 102.5t186.5 38t186.5 -38t153 -102.5t102.5 -153t38 -186.5t-38 -186.5t-102.5 -153t-153 -102.5t-186.5 -38zM793 537q-9 9 -22 9t-22 -9l-301 -302l-172 172q-9 9 -21.5 9t-21.5 -9
t-9 -21.5t9 -21.5l187 -187q2 -5 5 -8q9 -9 22 -9t22 9l324 324q9 9 9 22t-9 22z" />
    <glyph glyph-name="weibiaoti202" unicode="&#xe61e;" 
d="M459 533h106v-439h-106v439zM512 674q22 0 37.5 -15.5t15.5 -37.5t-15.5 -37.5t-37.5 -15.5t-37.5 15.5t-15.5 37.5t15.5 37.5t37.5 15.5zM512 896q-104 0 -199 -40.5t-163.5 -109t-109 -163.5t-40.5 -199t40.5 -199t109 -163.5t163.5 -109t199 -40.5t199 40.5t163.5 109
t109 163.5t40.5 199t-40.5 199t-109 163.5t-163.5 109t-199 40.5zM512 -12q-108 0 -199 53t-144 144.5t-53 198.5q0 108 53 199t144 144t199 53t199 -53t144 -144t53 -199t-53 -199t-144 -144t-199 -53z" />
    <glyph glyph-name="yhk" unicode="&#xe63f;" 
d="M512 273h-226v28h226v-28zM625 386h-339v-28h339v28zM960 698v-623q0 -57 -40 -97t-97 -40h-623q-56 0 -96 40t-40 97v623q0 56 40 96t96 40h623q57 0 97 -40t40 -96zM173 527h678v43q0 17 -12.5 29.5t-29.5 12.5h-594q-17 0 -29.5 -12.5t-12.5 -29.5v-43zM851 471h-678
v-269q0 -17 12.5 -29.5t29.5 -12.5h594q17 0 29.5 12.5t12.5 29.5v269z" />
    <glyph glyph-name="x" unicode="&#xe620;" 
d="M512 848q94 0 180 -37t148 -99t99 -148t37 -180t-37 -180t-99 -148t-148 -99t-180 -37t-180 37t-148 99t-99 148t-37 180t37 180t99 148t148 99t180 37zM512 896q-104 0 -199 -40.5t-163.5 -109t-109 -163.5t-40.5 -199t40.5 -199t109 -163.5t163.5 -109t199 -40.5
t199 40.5t163.5 109t109 163.5t40.5 199t-40.5 199t-109 163.5t-163.5 109t-199 40.5zM738 203l-181 181l181 181q10 9 10 22.5t-9.5 23t-23 9.5t-22.5 -10l-181 -181l-181 181q-9 10 -22.5 10t-23 -9.5t-9.5 -23t10 -22.5l181 -181l-181 -181q-10 -9 -10 -22.5t9.5 -23
t23 -9.5t22.5 10l181 181l181 -181q9 -10 22.5 -10t23 9.5t9.5 23t-10 22.5v0z" />
    <glyph glyph-name="jiansheyinxing" unicode="&#xe622;" 
d="M614 748l246 -243l86 83l-161 166q-23 20 -47.5 35.5t-36.5 20.5l-13 5q-38 12 -73.5 14.5t-59.5 -2t-42.5 -10.5t-27.5 -12l-9 -6q28 0 52 -5.5t39 -13t26.5 -14.5t15.5 -12l5 -6v0v0zM738 359q-13 2 -22 -1t-11 -7l-2 -4l-190 -186q-7 -8 -13.5 -7t-10.5 6l-4 6
l-183 179q-7 3 -7.5 9.5t1.5 11.5l3 5l187 187q6 8 12.5 7.5t11.5 -5.5l5 -5l185 -177q7 -10 14 -9.5t11 5.5l5 5l101 96l-281 276q-33 22 -73 27.5t-73 -3t-61 -20t-44 -21.5l-16 -11q-151 -86 -198 -260q-11 -44 -12 -74q-1 -67 13 -126t35.5 -99.5t51 -75t53.5 -54
t51 -35t36 -19.5t15 -6v0q194 -85 379 15q53 29 83 58q42 34 72 78.5t43 84t20 74t7 55.5v20h-194v0v0zM738 359z" />
    <glyph glyph-name="zheshangyinxing" unicode="&#xe623;" horiz-adv-x="1025" 
d="M1024 309l-88 -91l-227 216l85 89l73 -70l15 15l-292 279l-14 -15l75 -72l-85 -89l-241 230l88 91l93 -89l89 93l425 -405l-89 -93zM458 460l-240 229l92 96l241 -229zM351 348l-241 230l93 96l241 -230zM246 239l-76 72l-14 -15l292 -279l14 15l-73 70l91 94l227 -217
l-90 -93l-93 89l-99 -103l-425 406l99 102l-93 89l90 93l240 -229zM587 307l227 -216l-93 -96l-227 216zM694 419l227 -217l-92 -96l-227 217z" />
    <glyph glyph-name="diqiu" unicode="&#xe656;" 
d="M512 679zM226 467zM498 768h26q70 -3 129 -27q64 -25 116 -72.5t83 -109.5q40 -77 42 -167v-14q-2 -88 -41 -164q-38 -77 -105 -130q-69 -54 -155 -73q-29 -6 -69 -9h-26q-50 3 -90 14q-110 31 -185 117q-52 59 -76 134q-18 53 -19 111v14q2 108 60 198q61 98 166 145
q66 30 144 33v0zM425 686q-30 -37 -53 -103q10 -2 55 -9q43 -4 69 -5v84v83q-38 -8 -71 -50v0zM526 569q48 1 93 9q15 2 31 5q-28 78 -66 119q-27 28 -58 34v-83.5v-83.5v0zM395 718q-83 -29 -143 -94q41 -21 90 -34q29 88 76 135q-6 -1 -23 -7v0zM604 725q3 -3 20 -23
q34 -45 56 -112q49 13 90 34q-69 75 -166 101v0zM232 600q-69 -89 -73 -200q17 1 153 1q2 83 22 160q-57 15 -102 39v0zM688 561q20 -77 22 -160h48h57h48q-5 111 -73 200q-44 -25 -102 -40v0zM343 401q13 -1 76.5 -0.5t76.5 0.5v138q-70 1 -133 15q-18 -72 -20 -153v0z
M526 539v-138q15 0 77 -0.5t76 0.5q-2 81 -21 153q-61 -14 -132 -15v0zM159 370q4 -111 73 -200q45 24 102 40q-20 76 -22 160h-153v0zM343 370q2 -82 21 -153q61 13 132 15v138h-76.5h-76.5v0zM526 370v-138q70 -2 132 -15q20 75 21 153h-76h-77v0zM710 370
q-2 -83 -22 -160q57 -15 102 -40q68 88 73 200h-76.5h-76.5v0zM372 187q27 -78 66 -118q27 -28 58 -35v84v83q-66 -1 -124 -14v0zM526 201v-83.5v-83.5q38 8 71 50q30 38 53 103q-13 3 -57 10q-44 4 -67 4v0zM252 146q70 -75 166 -101q-47 48 -76 135q-47 -12 -90 -34v0z
M680 180q-29 -87 -76 -135q97 26 166 101q-40 21 -90 34v0zM680 180z" />
    <glyph glyph-name="huidaodingbu-copy-copy" unicode="&#xe641;" 
d="M737 568h-449q-12 0 -21 -8.5t-9 -21t9 -21t21 -8.5h449q13 0 21.5 8.5t8.5 21t-8.5 21t-21.5 8.5zM742 297q-31 27 -103 89q-45 39 -72 62q-15 13 -24 20q-17 15 -28 15q-12 0 -29 -15l-24 -21q-25 -22 -69 -61l-99 -90q-9 -8 -10 -20t7.5 -21.5t20.5 -10t21 7.5
q92 82 152 136v-309q0 -12 9 -20.5t21 -8.5t21 8.5t9 20.5v310q63 -54 158 -137q9 -7 20 -7q13 0 22 10q8 9 7 21.5t-10 20.5zM907 509q-33 77 -92.5 137t-137.5 92q-80 34 -167.5 34t-167.5 -34q-77 -32 -136.5 -92t-92.5 -137q-34 -80 -34 -167.5t34 -167.5
q33 -78 92.5 -137.5t136.5 -91.5q80 -34 167.5 -34t167.5 34q78 32 137.5 91.5t92.5 137.5q33 80 33 167.5t-33 167.5zM509.5 -29q-100.5 0 -186 49.5t-135 135t-49.5 186t49.5 186t135 135t186 49.5t186 -49.5t135 -135t49.5 -186t-49.5 -186t-135 -135t-186 -49.5z" />
    <glyph glyph-name="qianggou" unicode="&#xe625;" 
d="M576 800h-160q-20 0 -35.5 14t-15.5 37t15 34t36 11h160q20 0 35.5 -14t15.5 -37t-15 -34t-36 -11zM499 653q-14 0 -23 8.5t-9 23.5v128q0 14 9 23t23 9q26 0 26 -32v-128q0 -14 -8 -23t-18 -9zM499 717q-113 0 -209 -57.5t-151.5 -154.5t-55.5 -210.5t55.5 -211
t151.5 -154.5t209 -57t209 57t151.5 154.5t55.5 210.5q0 85 -33.5 163.5t-90 135t-133 90.5t-159.5 34zM723 262h-224q-14 0 -23 9t-9 23v263q0 14 9 23t23.5 9t23 -9t8.5 -23v-231h192q15 0 23.5 -8.5t8.5 -23t-8.5 -23.5t-23.5 -9z" />
    <glyph glyph-name="zhongguoyinxing" unicode="&#xe626;" 
d="M512 896q-140 0 -257.5 -68.5t-186 -186t-68.5 -257.5t68.5 -257.5t186 -186t257.5 -68.5t257.5 68.5t186 186t68.5 257.5t-68.5 257.5t-186 186t-257.5 68.5zM450 -13q-146 21 -243.5 134t-97.5 263t97.5 263t243.5 134v-188h-83q-46 0 -74 -31t-28 -78v-198
q0 -46 33.5 -78.5t81.5 -32.5h70v-188v0zM388 288q-6 -2 -8 4l-2 9v170q0 7 2 11l8 4h190h51q5 0 9 -2t6 -10v0v-175q-2 -5 -4 -7l-6 -4h-246zM570 -13v190h74q48 0 78.5 31.5t30.5 79.5v196q0 47 -32.5 78t-80.5 31h-70v190q146 -21 244.5 -134.5t98.5 -264.5t-98.5 -263.5
t-244.5 -133.5z" />
    <glyph glyph-name="shizitianjia" unicode="&#xe627;" horiz-adv-x="1027" 
d="M1013 412q-10 11 -26 11h-428v436q0 15 -11 26t-26 11t-26 -11t-11 -26v-436h-448q-15 -1 -26 -11.5t-11 -25.5t11 -26t26 -11h448v-440q0 -15 11 -26t26 -11v0q16 0 26.5 10.5t10.5 26.5v440h428q15 0 26 11t11 26t-11 26z" />
    <glyph glyph-name="dizhi" unicode="&#xe65e;" 
d="M893 494v-21l-3 -12t-3 -13q-14 -74 -54 -138q-116 -252 -321 -438q-205 186 -321 438q-40 64 -54 138q-1 5 -3 13l-3 12v21v21q0 104 51 191.5t139 138.5t191 51t191 -51t139 -138.5t51 -191.5v-21zM850 515q0 92 -45.5 170t-123 123t-169.5 45t-169.5 -45t-123 -123
t-45.5 -170v-19v-18q1 -4 2.5 -11t3.5 -11q11 -66 47 -123q103 -224 285 -389q182 165 285 389q36 57 47 123q2 4 3.5 11t2.5 11v18q1 5 0.5 9.5t-0.5 9.5zM512 388q-66 0 -112.5 46.5t-46.5 112.5t46.5 112.5t112.5 46.5t112.5 -46.5t46.5 -112.5t-46.5 -112.5
t-112.5 -46.5zM512 663q-48 0 -82 -34t-34 -82t34 -82t82 -34t82 34t34 82t-34 82t-82 34z" />
    <glyph glyph-name="yilingqu" unicode="&#xe629;" 
d="M352 634l16 13l21 -2l-8 19l8 18l-21 -1l-16 13l-5 -20l-18 -10l18 -11l5 -19v0zM644 656l15 -15l6 19l18 9l-17 12l-3 21l-17 -12l-20 4l6 -20l-9 -18h21zM480 679l20 6l19 -10v20l15 14l-20 7l-10 18l-12 -16l-21 -2l12 -17zM264 558l14 -14l7 20l19 9l-16 12l-3 20
l-17 -12l-20 3l5 -19l-10 -19h21v0zM658 164l-16 -13l-21 2l8 -19l-8 -18l21 1l16 -13l5 20l17 10l-17 11l-5 19v0zM530 129l-19 -6l-19 10v-21l-14 -13l19 -7l10 -19l12 16l20 3l-12 17zM376 151l-14 15l-6 -19l-18 -9l16 -12l4 -21l16 12l21 -4l-7 20l9 18h-21v0z
M502.5 842q-88.5 0 -169 -34.5t-138.5 -93t-92.5 -139t-34.5 -168.5t34.5 -168.5t92.5 -139t138.5 -93t169 -34.5t169 34.5t138.5 93t92.5 139t34.5 168.5t-34.5 168.5t-92.5 139t-138.5 93t-169 34.5zM503 1q-111 0 -204.5 54.5t-147.5 148t-54 203.5t54 203.5t147.5 148
t204 54.5t204 -54.5t148 -148t54.5 -203.5t-54.5 -203.5t-148 -148t-203.5 -54.5v0zM502.5 772q-98.5 0 -182.5 -49t-133 -133t-49 -183t49 -183t133 -133t182.5 -49t183 49t133 133t48.5 183t-49 183t-133 133t-182.5 49zM773 250l-15 13l-5 -20l-18 -11l17 -10l3 -20
l17 13l20 -1q-48 -72 -124.5 -113.5t-164.5 -41.5q-95 0 -175 46.5t-127 126.5t-47 174.5t47 175t127 127t174.5 46.5t174.5 -46.5t127 -127t47 -174.5q0 -106 -59 -193l-7 18l9 19zM646 582q-63 51 -143 51q-82 0 -144.5 -52t-78.5 -131l15 -3q14 75 72.5 123.5t135.5 48.5
q75 0 134 -48l9 11v0zM503 195q-76 0 -135 48l-9 -11q63 -51 144 -51t144 51.5t78 131.5l-15 3q-14 -75 -72.5 -123.5t-134.5 -48.5v0zM312 233q-5 -2 -9 -2q-10 1 -16 8q-2 2 -5 8l-34 88q-2 6 4 8v0q7 2 8 -3l8 -20l101 38q4 2 5.5 6t0.5 8l-13 34q-2 4 -6 5.5t-8 0.5
l-106 -40q-6 -2 -7 4v0q-3 6 3 8l106 40q4 1 9 1q8 0 16 -7q4 -5 5 -8l13 -34q1 -4 1 -9q-1 -9 -7 -16q-3 -3 -8 -5l-101 -38l22 -57q1 -4 5 -5.5t8 -0.5l111 42q7 2 8 -3v-1q2 -6 -3 -8l-111 -42v0zM402 428q-1 11 4 16q4 6 14 10l15 6q10 3 16 1q8 -1 14 -9l16 -24
q4 -5 -1 -9h-1q-5 -3 -8 1l-17 24q-3 4 -6 5q-4 0 -9 -1l-15 -6q-6 -2 -7 -5q-3 -3 -2 -7l3 -29q0 -6 -5 -7h-1q-6 0 -7 6l-3 28v0zM483 397q2 1 5 0q2 -1 3 -5q5 -38 -5 -71l12 -3q6 -2 4 -8q-1 -2 -3 -4q-1 -1 -4 -1l-50 13q-6 2 -4 8q1 3 3 4q3 1 5 0l25 -7q8 26 6 59
l-55 -21q-6 -2 -8 4v0q-2 6 4 8zM452 401q2 -5 -4 -8v0q-6 -2 -8 4l-6 16q-2 5 3 8h1q5 2 8 -4zM541 497q6 2 8 -4v0q2 -6 -4 -8l-24 -9v-1l2 -22l15 6q7 2 15 -1q7 -3 11 -11l22 -58q2 -6 -4 -8v0q-6 -2 -8 4l-22 58q0 2 -4 4q-2 2 -5 0l-36 -13q-3 -1 -4 -4t0 -6l22 -58
q2 -6 -4 -8v0q-6 -2 -8 3l-22 58q-2 5 -1 8q1 14 13 18l9 4v0.5v0.5l-2 22l-30 -12q-6 -2 -8 4v0q-2 5 3 8l66 25v0zM539 422q7 -22 9 -33l2 -1l49 -33q5 -4 1 -9q-2 -5 -8 -1l-43 29v-9q-2 -15 -6 -25q-5 -12 -9 -19q-3 -5 -8 -2v0q-6 3 -3 8q3 6 8 17q4 9 5 22q2 21 -8 52
q-2 6 3 8v0q3 1 5 0q1 0 3 -4v0zM575 494q-6 -2 -8 3v1q-2 6 3 8l71 26q6 2 8 -3v-1q1 -5 -4 -8l-3 -1l39 -103l2 1q5 3 8 -2v-1q3 -5 -3 -8l-3 -2l7 -21q3 -6 -3 -8v0q-6 -2 -8 4l-7 19l-52 -28q-4 -3 -8 3v0q-3 5 2 9l4 2h-1l-41 111zM630 515l-40 -16l10 -27l41 15z
M656 447l-11 28l-40 -15l10 -28zM620 420l11 -31l39 21l-10 25zM717 551q4 1 6 -0.5t3 -4.5q4 -26 5 -42q2 -28 0 -47l43 -39q4 -4 0 -8v-1q-5 -4 -9 0l-35 32q-2 -12 -4 -20q-2 -10 -8 -30q0 -3 -3 -4q-2 -1 -5 0q-5 2 -3 8q4 12 7 27t5 30l-50 44q-4 4 0 9v0q4 5 9 1
l42 -38q1 38 -5 69l-47 -18q-7 -2 -8 3v1q-2 6 3 8l54 20v0z" />
    <glyph glyph-name="yonghu-copy" unicode="&#xe601;" 
d="M381 348q-143 87 -148 243q-4 114 76 197q86 90 206 88.5t204 -93.5q59 -63 70 -149.5t-28 -166t-119 -119.5q22 -10 23 -10q170 -73 231 -246q3 -11 19 -82q1 -6 -1 -15q-5 -18 -23 -18q-20 1 -24 20q-13 64 -14 67q-71 211 -280 248q-182 32 -316 -102
q-83 -83 -100 -206q-3 -22 -19 -26q-12 -3 -21 5t-8 21q9 96 61 177q71 108 191 158q2 1 16 7zM512 366q94 0 161 66t68 159q2 99 -65 166t-159 70q-94 2 -164 -64t-71 -163q-2 -96 65.5 -165t164.5 -69z" />
    <glyph glyph-name="cy3" unicode="&#xe62a;" 
d="M813 810h-603q-60 0 -103 -43t-43 -103v-388q0 -60 43 -103t103 -43h21q-6 -66 -44 -125q-12 -19 3 -36q9 -11 24 -11q6 0 12 3q40 17 74.5 41t58 49t37 43.5t23.5 35.5h394q60 0 103 43t43 103v388q0 60 -43 103t-103 43zM322 585h182q12 0 20.5 -8.5t8.5 -20t-8.5 -20
t-20.5 -8.5h-182q-12 0 -20.5 8.5t-8.5 20t8.5 20t20.5 8.5zM686 355h-364q-12 0 -20.5 8.5t-8.5 20.5t8.5 20.5t20.5 8.5h364q12 0 20.5 -8.5t8.5 -20.5t-8 -20.5t-21 -8.5z" />
    <glyph glyph-name="jiazu1" unicode="&#xe62b;" 
d="M61 44q5 118 79.5 207.5t187.5 115.5q-51 23 -82.5 70.5t-31.5 104.5q0 47 21 88q-8 12 -8 27q0 21 15 36t36 15q13 0 23 -5q48 31 105 31q79 0 135.5 -56t56.5 -136q0 -57 -31.5 -104.5t-82.5 -70.5q113 -26 187.5 -115.5t79.5 -207.5h-690v0zM579 362q7 2 13 4
q-10 7 -20 15q65 66 65 158q0 56 -27 106q31 14 66 14q65 0 111.5 -46.5t46.5 -111.5q0 -42 -20 -77.5t-55 -57.5q86 -26 142 -98t60 -164h-188q-17 84 -68 151.5t-126 106.5zM586 389q6 0 10.5 -4.5t4.5 -10.5t-4.5 -10.5t-10.5 -4.5t-10.5 4.5t-4.5 10.5t4.5 10.5
t10.5 4.5z" />
    <glyph glyph-name="kongxinyuan1" unicode="&#xe659;" 
d="M511.5 -66q-91.5 0 -174.5 35q-81 35 -143.5 97t-96.5 143q-35 83 -35 174.5t35 175.5q34 81 96.5 143t143.5 96q83 36 174.5 36t175.5 -36q81 -34 143 -96t96 -143q36 -84 36 -175.5t-36 -174.5q-34 -81 -96 -143t-143 -97q-84 -35 -175.5 -35zM511.5 808
q-86.5 0 -164.5 -33q-77 -32 -135.5 -91t-90.5 -135q-34 -79 -34 -165t34 -165q32 -77 90.5 -135.5t135.5 -90.5q78 -34 164.5 -34t165.5 34q76 32 135 90.5t91 135.5q33 79 33 165t-33 165q-32 76 -91 135t-135 91q-79 33 -165.5 33z" />
    <glyph glyph-name="qun" unicode="&#xe65f;" 
d="M512 -27q-39 0 -75.5 3t-80.5 10.5t-80 24t-54 40.5q-27 35 -16 81q13 48 67.5 80t141.5 43v13q-58 46 -79 136q-7 30 -10 72t5 93q26 121 144 128q39 3 75 0q118 -8 143 -128q8 -51 5 -93t-10 -72q-21 -90 -79 -136v-13q87 -11 141.5 -43t67.5 -80v0q11 -46 -16 -81
q-18 -24 -54 -40.5t-80 -24t-80.5 -10.5t-75.5 -3zM514 650q-22 0 -36 -1q-82 -5 -100 -90q-6 -38 -4 -77t9 -67q19 -82 70 -115q10 -7 10 -20v-46q0 -10 -6 -16.5t-15 -7.5q-79 -7 -129.5 -31.5t-59.5 -58.5q-6 -23 7 -39q21 -28 88 -44t164 -16t164 16t88 44q13 16 7 39
q-9 34 -59.5 58.5t-129.5 31.5q-9 1 -15 7.5t-6 16.5v46q0 13 10 20q51 33 70 115q7 28 9 67t-4 77q-18 85 -100 91h-32zM964 200q-18 0 -23 18q-9 34 -60 58t-129 32q-9 1 -15.5 7.5t-6.5 16.5v46q0 12 11 20q51 33 70 115q7 28 9 67t-4 76q-9 42 -33.5 64t-68.5 27
q-9 2 -15.5 9.5t-5 17.5t9.5 16t17 5q119 -15 143 -129q7 -50 4.5 -92.5t-9.5 -71.5q-22 -91 -80 -137v-12q88 -11 142.5 -43t66.5 -80q3 -10 -2 -18.5t-15 -11.5h-6zM60 200h-6q-10 3 -15 11.5t-2 18.5q12 48 66.5 80t142.5 43v12q-59 46 -80 137q-7 29 -9.5 71.5t4.5 92.5
q24 114 143 129q9 1 17 -5t9.5 -16t-5 -17.5t-16.5 -9.5q-43 -5 -67.5 -27t-33.5 -64q-6 -37 -4 -76t9 -67q19 -82 70 -115q11 -8 11 -20v-46q0 -10 -6.5 -16.5t-15.5 -7.5q-78 -8 -129 -32t-60 -58q-5 -18 -23 -18z" />
    <glyph glyph-name="jilu" unicode="&#xe62c;" horiz-adv-x="1076" 
d="M1053 580l-61 60q-12 12 -31.5 10.5t-34.5 -16.5l-452 -453q-15 -15 -17 -34.5t11 -31.5l60 -60q12 -13 31.5 -11t34.5 17l452 452q15 15 17 34.5t-10 32.5zM573 -1l2 -2l-188 -99h381q21 0 36 15t15 36v291l-233 -232q-1 -1 -13 -9zM408 140q7 18 17 28l394 392v285
q0 21 -15 36t-36 15h-717q-21 0 -36 -15t-15 -36v-896q0 -21 15 -36t36 -15h253l102 245zM128 819h538q21 0 36 -9t15 -22t-15 -22.5t-36 -9.5h-538q-21 0 -36 9.5t-15 22.5t15 22t36 9zM128 651h538q21 0 36 -10t15 -23.5t-15 -23.5t-36 -10h-538q-21 0 -36 10t-15 23.5
t15 23.5t36 10zM128 410q-21 0 -36 10t-15 24t15 24t36 10h333q21 0 36 -10t15 -24t-15 -24t-36 -10h-333zM417 111l-96 -223l215 110z" />
    <glyph glyph-name="weixin" unicode="&#xe630;" 
d="M233 849h558q77 0 131.5 -54.5t54.5 -131.5v-558q0 -77 -54.5 -131.5t-131.5 -54.5h-558q-77 0 -131.5 54.5t-54.5 131.5v558q0 77 54.5 131.5t131.5 54.5v0zM870 291q0 77 -63 131.5t-150.5 54.5t-151 -54.5t-63.5 -131.5t63.5 -131.5t150.5 -54.5q45 0 79 14l66 -38
l-14 56q83 67 83 154zM666 491q-18 78 -89 127.5t-167 49.5q-108 0 -182 -64t-74 -155q0 -51 25.5 -95.5t71.5 -76.5l-23 -79l89 46l-5 5q42 -14 98 -14h18q-9 37 -9 56q4 84 73.5 145.5t173.5 54.5zM582 375q-10 0 -16.5 -8t-6.5 -16q0 -9 7.5 -16t15.5 -7q13 0 22.5 8
t9.5 15q0 9 -8 16.5t-24 7.5v0v0zM726 375q-10 0 -16.5 -8t-6.5 -16q0 -9 7.5 -16t15.5 -7q13 0 23 8t10 15q-12 24 -33 24v0v0zM321 556q-14 0 -25.5 -9.5t-11.5 -23t11.5 -23t25.5 -9.5t23.5 9.5t9.5 23.5q0 17 -7.5 24.5t-25.5 7.5v0v0zM503 496q14 0 23 9t9 23t-9 23.5
t-23 9.5q-15 0 -26.5 -9.5t-11.5 -23.5q0 -16 11 -24t27 -8v0v0z" />
    <glyph glyph-name="fenlei1" 
d="M673 440q20 -20 48 -20t48 20l106 106q20 19 20 47.5t-20 48.5l-106 106q-20 19 -48 19t-48 -19l-106 -106q-20 -20 -20 -48.5t20 -47.5zM607 611l97 97q7 7 17.5 7t17.5 -7l97 -97q7 -7 7 -17.5t-7 -17.5l-97 -97q-7 -7 -17.5 -7t-17.5 7l-97 97q-7 7 -7 17.5t7 17.5z
M808 350h-174q-36 0 -61.5 -25.5t-25.5 -61.5v-174q0 -36 25.5 -61.5t61.5 -25.5h174q36 0 61.5 25.5t25.5 61.5v174q0 36 -25.5 61.5t-61.5 25.5zM843 89q0 -15 -10 -25t-25 -10h-174q-14 0 -24 10t-10 25v174q0 14 10 24t24 10h174q15 0 25 -10t10 -24v-174zM391 350h-174
q-36 0 -61.5 -25.5t-25.5 -61.5v-174q0 -36 25.5 -61.5t61.5 -25.5h174q36 0 61.5 25.5t25.5 61.5v174q0 36 -25.5 61.5t-61.5 25.5zM425 89q0 -15 -10 -25t-24 -10h-174q-15 0 -25 10t-10 25v174q0 14 10 24t25 10h174q14 0 24 -10t10 -24v-174zM391 767h-174
q-36 0 -61.5 -25.5t-25.5 -61.5v-174q0 -36 25.5 -61.5t61.5 -25.5h174q36 0 61.5 25.5t25.5 61.5v174q0 37 -25.5 62t-61.5 25zM425 506q0 -14 -10 -24t-24 -10h-174q-15 0 -25 10t-10 24v174q0 15 10 25t25 10h174q14 0 24 -10t10 -25v-174z" />
    <glyph glyph-name="daishouhuo" unicode="&#xe624;" 
d="M107 838q-42 0 -72 -30t-30 -72v-570v-1q0 -11 8 -18.5t19 -7.5t19 7.5t8 18.5v1v565q0 22 15.5 37.5t37.5 15.5h578q22 0 37.5 -15.5t15.5 -37.5v-172v0v0q0 -18 18 -25l215 -123v-327v0q0 -11 7 -19t17 -8t17 8t7 19v0v340q0 12 -10 19v0l-217 126v167q0 42 -30 72
t-72 30h-588v0zM107 838zM835 334h-135v106v0q0 11 -7.5 18.5t-18.5 7.5t-18.5 -7.5t-7.5 -18.5v-106v-5.5t2.5 -12.5t7.5 -15.5t15.5 -12t26.5 -5.5h134h1q10 0 17.5 7.5t7.5 18t-7.5 18t-17.5 7.5v0zM835 334zM230 196q-55 0 -94.5 -39t-39.5 -94t39.5 -94t94.5 -39
q47 0 83.5 29.5t46.5 74.5l272 1q10 -46 46.5 -75.5t83.5 -29.5q55 0 94.5 39t39.5 94t-39.5 94t-94.5 39q-50 0 -87.5 -33.5t-43.5 -82.5h-269q-7 49 -44.5 82.5t-87.5 33.5v0zM762 -13q-31 0 -54 22.5t-23 54t23 54t54.5 22.5t54 -22.5t22.5 -54t-22.5 -54t-54.5 -22.5v0z
M230 -13q-32 0 -54.5 22.5t-22.5 54t22.5 54t54.5 22.5t54.5 -22.5t22.5 -54t-22.5 -54t-54.5 -22.5v0zM230 -13z" />
    <glyph glyph-name="fenlei2" unicode="&#xe651;" 
d="M673 440q20 -20 48 -20t48 20l106 106q20 19 20 47.5t-20 48.5l-106 106q-20 19 -48 19t-48 -19l-106 -106q-20 -20 -20 -48.5t20 -47.5zM607 611l97 97q7 7 17.5 7t17.5 -7l97 -97q7 -7 7 -17.5t-7 -17.5l-97 -97q-7 -7 -17.5 -7t-17.5 7l-97 97q-7 7 -7 17.5t7 17.5z
M808 350h-174q-36 0 -61.5 -25.5t-25.5 -61.5v-174q0 -36 25.5 -61.5t61.5 -25.5h174q36 0 61.5 25.5t25.5 61.5v174q0 36 -25.5 61.5t-61.5 25.5zM843 89q0 -15 -10 -25t-25 -10h-174q-14 0 -24 10t-10 25v174q0 14 10 24t24 10h174q15 0 25 -10t10 -24v-174zM391 350h-174
q-36 0 -61.5 -25.5t-25.5 -61.5v-174q0 -36 25.5 -61.5t61.5 -25.5h174q36 0 61.5 25.5t25.5 61.5v174q0 36 -25.5 61.5t-61.5 25.5zM425 89q0 -15 -10 -25t-24 -10h-174q-15 0 -25 10t-10 25v174q0 14 10 24t25 10h174q14 0 24 -10t10 -24v-174zM391 767h-174
q-36 0 -61.5 -25.5t-25.5 -61.5v-174q0 -36 25.5 -61.5t61.5 -25.5h174q36 0 61.5 25.5t25.5 61.5v174q0 37 -25.5 62t-61.5 25zM425 506q0 -14 -10 -24t-24 -10h-174q-15 0 -25 10t-10 24v174q0 15 10 25t25 10h174q14 0 24 -10t10 -25v-174z" />
    <glyph glyph-name="kefu" unicode="&#xe660;" 
d="M697 332q4 12 -6 20t-21 0q-3 -2 -10 -5q-14 -8 -31 -15q-55 -21 -117 -21t-117 21q-17 7 -31 15q-5 3 -10 5q-11 8 -21 0t-6 -20q19 -59 70.5 -96t114.5 -37t114.5 37t70.5 96zM880 455q-15 79 -61 145q-2 2 -4 5q-3 4 -4 6q-4 6 -9 11q0 1 -0.5 1t-0.5 1
q-77 93 -194 124h-2h-1l-14 4h-5q-6 2 -13 3q-3 0 -5 1q-5 0 -13 1l-5 1q-6 0 -13 1h-3h-3q-9 1 -18 1t-18 -1h-3h-3q-7 -1 -13 -1l-6 -1t-12 -1q-2 -1 -5 -1q-7 -1 -13 -2q-3 -1 -5 -1l-14 -4h-3q-117 -31 -194 -124q0 -1 -0.5 -1.5t-1.5 -0.5q-4 -6 -7 -10q-2 -3 -6 -7
q-1 -3 -3 -5q-46 -66 -61 -145q-35 -5 -58.5 -31.5t-23.5 -62.5q0 -39 28 -66.5t68 -27.5h4q2 -9 9.5 -15t17.5 -6q11 0 19 8t8 19q0 14 -10 22v0q-13 44 -13 90q0 132 93.5 225t225.5 93t225.5 -93t93.5 -225q0 -98 -53.5 -177.5t-140.5 -116.5q-13 10 -28 9
q-19 0 -33 -13.5t-14 -32.5t14 -32.5t33 -13.5q31 0 43 29q77 31 133.5 91t82.5 139q39 1 66.5 28.5t27.5 65.5q0 36 -23.5 62.5t-58.5 31.5z" />
    <glyph glyph-name="miaosha" unicode="&#xe611;" 
d="M504.5 879q-102.5 0 -195.5 -39.5t-160.5 -107t-107.5 -161t-40 -196t40 -196t107.5 -161t160.5 -107t195.5 -39.5t196 39.5t161 107t107.5 161t40 196t-40 196t-107.5 161t-161 107t-196 39.5zM504.5 -88q-94.5 0 -180 36.5t-147.5 99t-99 148t-37 180t37 180.5t99 148
t147.5 98.5t180 36.5t180.5 -36.5t148 -98.5t98.5 -148t36.5 -180.5t-36.5 -180t-98.5 -148t-148 -99t-180.5 -36.5zM402 -7l95 337h-186l219 430l-58 -324h223zM504.5 880q-102.5 0 -195.5 -40t-160.5 -107.5t-107.5 -160.5t-40 -195.5t40 -196t107.5 -160.5t160.5 -107
t195.5 -40t196 40t160.5 107t107 160.5t40 196t-40 195.5t-107 160.5t-160.5 107.5t-196 40zM504.5 -75q-91.5 0 -175 36t-144 96.5t-96 143.5t-35.5 175t35.5 175.5t96 144t144 96t175 35.5t175 -35.5t144 -96t96.5 -144t36 -175.5t-36 -175t-96.5 -143.5t-144 -96.5
t-175 -36z" />
    <glyph glyph-name="yishiyong" unicode="&#xe62f;" 
d="M326 400q5 73 58.5 123.5t127.5 50.5q41 0 81 -19l11 6q-45 24 -92 24q-81 0 -138 -56t-60 -136zM435 342q3 13 5 24l51 -88l18 10l-67 115q0 24 -5 47l-22 -2q11 -46 4 -90zM559 469l-39 -23l-7 13l45 26l-9 17l-46 -26l-9 15l-18 -10l9 -16l-42 -24l9 -17l43 24l7 -12
l-38 -22l30 -52l37 21q6 -14 8 -25q-16 1 -33 8l-8 -18q18 -7 38 -9q-7 -16 -29 -31l18 -12q26 21 33 42q35 0 71 18l-6 19q-32 -16 -63 -18q-1 15 -11 37l40 23zM502 388l-12 20l21 12l12 -20zM541 410l-12 20l23 13l11 -20zM667 703l13 -19l9 22l22 7l-17 15l1 23l-20 -12
l-22 7l5 -23l-14 -19zM170 383l-23 -3l-18 15l-3 -22l-21 -11l21 -11l5 -22l17 16l24 -3l-11 21zM469 728l21 10l20 -10l-3 24l16 17l-23 4l-10 21l-11 -21l-23 -4l16 -17zM185 587l-15 -17h-23l12 -19l-6 -22l22 5l19 -14l1 23l19 12l-22 10zM292 684l10 -22l12 20l22 2
l-14 18l4 23l-21 -7l-20 12l2 -24l-17 -15zM704 606l-133 -77l49 -85q19 -34 17 -64l20 -5q4 31 -11 65l38 22l28 -48l19 10l-28 48l40 24l14 -24q6 -10 -2 -14.5t-19 -9.5l15 -15l19 11q21 12 9 32zM696 578l14 -24l-41 -24l-14 24zM613 498l-14 24l38 22l14 -24zM637 457
l-14 24l38 22l14 -24zM693 489l-14 25l41 23l14 -24zM870 249l-22 -5l-19 14l-1 -23l-19 -13l22 -9l7 -21l15 17l23 -1l-13 19zM511.5 827q-89.5 0 -171 -34.5t-140.5 -93.5t-94 -141t-35 -171.5t35 -171t94 -140.5t140.5 -94t171 -35t171 35t140.5 94t94 140.5t35 171
t-35 171.5t-94 141t-140.5 93.5t-171 34.5zM511.5 -32q-113.5 0 -210 56t-152.5 152.5t-56 210t56 210t152.5 152.5t210 56t210 -56t152.5 -152.5t56 -210t-56 -210t-152.5 -152.5t-210 -56zM896 422l-5 22l-16 -15l-24 2l11 -20l-10 -20l23 3l17 -15l4 22l21 10zM335 195
l96 56q10 6 13 15q2 9 -14 44l-21 -5q14 -27 13 -33q-2 -5 -6 -7l-86 -50q-9 -5 -14 5l-26 45l105 61l-42 74l-131 -76l10 -17l113 65l22 -39l-87 -50l-13 22l-18 -10l51 -89q13 -23 35 -11zM512 893q-103 0 -197 -40t-162 -108t-108 -161.5t-40 -196.5t40 -197t108 -162
t162 -108t197 -40t196.5 40t161.5 108t108 161.5t40 197t-40 197t-108 161.5t-161.5 108t-196.5 40zM511.5 -98q-98.5 0 -188.5 38.5t-154.5 103.5t-103 154.5t-38.5 188t38.5 188.5t103 155t154.5 103t188.5 38t188.5 -38t155 -103t103 -155t38 -188.5t-38 -188.5
t-103 -154.5t-155 -103t-188.5 -38.5zM732 92l-10 21l-12 -19l-22 -2l14 -18l-5 -23l21 8l20 -12l-1 23l16 15zM558 44l-21 -10l-20 9l3 -23l-15 -17l22 -4l11 -20l10 20l22 5l-15 17zM697 371q-6 -72 -59 -122t-126 -50q-41 0 -81 19l-11 -6q45 -24 92 -24q79 0 136.5 55.5
t60.5 134.5zM355 68l-13 19l-9 -22l-22 -7l17 -15v-23l20 13l21 -7l-5 22l14 19z" />
    <glyph glyph-name="yaochi" unicode="&#xe631;" 
d="M922 651l-25 22l21 24q11 10 12 24.5t-8 25.5l-38 43q-10 11 -25 12t-26 -9l-301 -233q-78 38 -168.5 25.5t-160.5 -73.5q-95 -83 -103.5 -209t73.5 -221t207.5 -103t220.5 76q79 69 99 171.5t-25 192.5l49 56l30 -27q8 -8 19 -6.5t19 10.5l30 35q7 9 7 20.5t-8 18.5
l-30 26l38 43l27 -24q8 -7 19 -5.5t19 10.5l29 35q8 9 7.5 20.5t-8.5 19.5zM410.5 140.5q-33.5 -29.5 -77.5 -26.5t-73 36.5t-26 77.5t36.5 73.5t77.5 27t73 -36t26 -78t-36.5 -74z" />
    <glyph glyph-name="yue" unicode="&#xe632;" 
d="M858 896h-692q-69 0 -117.5 -48.5t-48.5 -117.5v-692q0 -69 48.5 -117.5t117.5 -48.5h692q69 0 117.5 48.5t48.5 117.5v692q0 69 -48.5 117.5t-117.5 48.5zM780 422v-107h-214v-51h214v-107h-214v-110h-108v110h-214v107h214v51h-214v107h201l-223 223l76 76l214 -214
l214 214l76 -76l-223 -223h201zM692 297z" />
    <glyph glyph-name="x1" unicode="&#xe633;" 
d="M512 -128q139 0 257 68.5t186.5 186.5t68.5 257t-68.5 257t-186.5 186.5t-257 68.5t-257 -68.5t-186.5 -186.5t-68.5 -257t68.5 -257t186.5 -186.5t257 -68.5zM344 589l171 -172l172 172l36 -38l-171 -171l170 -171l-36 -36l-171 171l-171 -171l-37 37l172 171l-171 171z
" />
    <glyph glyph-name="asmkticon0201" unicode="&#xe610;" 
d="M288 557h576q8 0 13.5 5.5t5.5 13.5t-5.5 13.5t-13.5 5.5h-576q-8 0 -13.5 -5.5t-5.5 -13.5t5.5 -13.5t13.5 -5.5zM864 403h-576q-8 0 -13.5 -5.5t-5.5 -13.5t5.5 -13.5t13.5 -5.5h576q8 0 13.5 5.5t5.5 13.5t-5.5 13.5t-13.5 5.5zM864 211h-576q-8 0 -13.5 -5.5
t-5.5 -13.5t5.5 -13.5t13.5 -5.5h576q8 0 13.5 5.5t5.5 13.5t-5.5 13.5t-13.5 5.5zM160 576zM128 576q0 13 9.5 22.5t22.5 9.5t22.5 -9.5t9.5 -22.5t-9.5 -22.5t-22.5 -9.5t-22.5 9.5t-9.5 22.5zM160 384zM128 384q0 13 9.5 22.5t22.5 9.5t22.5 -9.5t9.5 -22.5t-9.5 -22.5
t-22.5 -9.5t-22.5 9.5t-9.5 22.5zM160 192zM128 192q0 13 9.5 22.5t22.5 9.5t22.5 -9.5t9.5 -22.5t-9.5 -22.5t-22.5 -9.5t-22.5 9.5t-9.5 22.5z" />
    <glyph glyph-name="suo" unicode="&#xe634;" 
d="M803 456h-64v150q0 94 -66.5 160.5t-160.5 66.5t-160.5 -66.5t-66.5 -160.5v-150h-64q-23 0 -39.5 -16t-16.5 -40v-409q0 -23 16.5 -39.5t39.5 -16.5h582q23 0 39.5 16.5t16.5 39.5v409q0 24 -16.5 40t-39.5 16v0zM544 185v-89q0 -8 -8 -8h-48q-7 0 -7 8v89
q-18 9 -28.5 25.5t-10.5 36.5q0 29 20.5 49.5t49.5 20.5t49.5 -20.5t20.5 -49.5q0 -20 -10.5 -36.5t-27.5 -25.5v0zM652 456h-280v146q0 58 41 99t99 41t99 -41t41 -99v-146v0z" />
    <glyph glyph-name="youhuiquan" unicode="&#xe635;" 
d="M947 472q17 11 21.5 20t4.5 26v136q0 28 -22.5 48t-53.5 20h-756q-32 0 -54 -20t-22 -48v-136q0 -18 4.5 -28t20.5 -18q32 -13 54 -35.5t22 -54.5q0 -68 -74 -91q-27 -15 -27 -45v-137q0 -28 22 -48t54 -20h756q31 0 53.5 20t22.5 48v137q0 17 -5.5 26t-20.5 19
q-41 19 -58 39t-17 51.5t16.5 51t58.5 39.5v0zM670 393q0 -5 -3.5 -8t-8.5 -3h-114v-46h114q5 0 8.5 -3t3.5 -8v-23q0 -4 -3.5 -7.5t-8.5 -3.5h-114v-79q0 -5 -3.5 -8.5t-9.5 -3.5h-25q-5 0 -8.5 3.5t-3.5 8.5v79h-114q-5 0 -8.5 3.5t-3.5 7.5v23q0 5 3.5 8t8.5 3h114v46
h-114q-5 0 -8.5 3t-3.5 8v23q0 4 3.5 7.5t8.5 3.5h96l-104 100q-8 8 0 16l16 16q8 8 16 0l115 -111l114 111q8 8 16 0l17 -16q8 -8 0 -16l-104 -100h96q5 0 8.5 -3.5t3.5 -7.5v-23v0v0zM670 393z" />
    <glyph glyph-name="zhaoshangyinxing-copy" unicode="&#xe636;" 
d="M469 177l139 350l145 -350h-284zM179 177l139 350l145 -350h-284zM900 256h109l-6 -19h-94zM879 307h139l-5 -21h-126zM858 356h166l-2 -21h-154zM838 405h186v-21h-177zM817 454h203l2 -21h-196zM796 503h213l4 -21h-209zM512 896h21l64 -6l22 -5l19 -4l38 -13l17 -8
l22 -7l19 -8l34 -17l17 -11l34 -26l15 -12l17 -11l43 -43l13 -15l25 -34l32 -51l9 -19l8 -17l13 -39l9 -17h-220l-134 316l-141 -356l-150 354l-260 -676l120 -150h605l111 162l-10 26h72l-6 -19l-26 -51l-10 -17l-9 -17l-21 -30l-13 -15l-58 -58l-15 -13l-15 -10l-14 -13
l-15 -11l-17 -10l-52 -26l-17 -6l-19 -7l-17 -6l-19 -7l-58 -12l-8 -3l-11 -2l-19 -2l-24 -2h-47l-25 2l-51 9l-26 6l-23 4l-47 17l-43 22l-43 25l-38 30l-26 26l-13 8l-17 17l-17 20l-6 8l-6 11l-15 19l-9 11l-13 21l-6 13l-13 21l-11 24l-8 21l-9 26l-4 23l-4 13l-11 64
l-2 28v10v13l4 51l13 77l6 23l18 47l10 22l39 64l29 38l69 68l10 7l9 6l19 15l64 39l21 10l24 9l23 6l26 13l13 4l64 11l25 2h26z" />
    <glyph glyph-name="jiantou2" unicode="&#xe637;" 
d="M959 553l-68 69l-380 -380l-379 380l-69 -69l438 -438h20z" />
    <glyph glyph-name="gongshangyinxing" unicode="&#xe638;" horiz-adv-x="1025" 
d="M103 383l4 -42l3 -38l11 -42l14 -35l17 -38l21 -32l10 -17l14 -14l25 -32l31 -24l32 -24l35 -21l34 -18l39 -14l38 -10l21 -4l21 -3h21h21h42l38 7l42 10l35 14l38 18l32 21l17 10l14 14l32 24l24 32l24 31l21 32l18 38l14 35l10 42l4 17l3 21v21v21v42l-7 42l-10 38
l-14 39l-18 34l-21 35l-10 18l-14 14l-24 28l-32 28l-31 24l-32 21l-38 17l-35 14l-42 11l-17 3h-21l-21 4h-21l-42 -4l-42 -3l-38 -11l-39 -14l-34 -17l-35 -21l-18 -10l-14 -14l-31 -28l-25 -28l-24 -32l-21 -35l-17 -34l-14 -39l-11 -38l-3 -21v-21l-4 -21v-21v0zM2 383
l3 52l4 28l3 25l14 49l7 24l11 21l10 24l11 21l24 42l14 21l18 21l31 35l17 17l18 14l21 18l21 14l21 14l21 10l45 21l45 18l25 7l24 7l25 3l28 4l52 3l52 -3l25 -4l24 -3l49 -14l24 -7l25 -11l21 -10l21 -11l45 -24l18 -14l21 -18l34 -31l18 -18l17 -17l14 -21l14 -21
l14 -21l11 -21l24 -45l18 -45l3 -25l7 -24l4 -25l3 -28l4 -52l-4 -52l-3 -25l-4 -24l-10 -49l-11 -24l-7 -25l-10 -21l-14 -21l-25 -45l-14 -18l-14 -21l-35 -34l-17 -18l-17 -17l-21 -14l-18 -14l-21 -14l-24 -11l-42 -24l-49 -18l-24 -7l-25 -3l-24 -4l-25 -3l-52 -4
l-52 4l-28 3l-25 4l-49 10l-24 11l-21 7l-24 10l-21 14l-42 25l-21 14l-21 14l-35 35l-17 17l-14 17l-18 21l-14 18l-14 21l-10 24l-21 42l-18 49l-7 24l-7 25l-3 24l-4 25l-3 52v0zM801 348v-70v-83v-74h-80h-171v74h171v83h-91h-80v74v76v77h80h91v77h-171v73h171h80v-73
v-77v-77h-80h-91v-76h171v-4v0zM225 348v-70v-83v-74h81h171v74h-171v83h90h81v74v76v77h-81h-90v77h171v73h-171h-81v-73v-77v-77h81h90v-76h-171v-4v0z" />
    <glyph glyph-name="renqi" unicode="&#xe639;" 
d="M449 -6q-6 1 -15.5 3t-37 10.5t-52.5 20t-55.5 33t-52.5 47.5t-37 65.5t-15 85.5q0 40 14.5 76t38 62.5t53 54t58.5 51t54.5 54t41.5 62t20 75t-10 93.5q3 -1 8.5 -3t23.5 -10t33 -17.5t37.5 -25.5t38 -34.5t33 -44.5t23.5 -55t9.5 -66t-10.5 -78q34 22 61 64
q5 -4 14 -11.5t31.5 -33.5t40 -54t31.5 -70.5t14 -86.5q0 -54 -29.5 -106t-72.5 -86t-88 -54.5t-78 -20.5q3 5 9 14t17.5 35t15.5 50.5t-3 54.5t-31 53q-34 32 -53.5 63.5t-23 53t-2.5 38.5t5 26l5 8q-6 -3 -16 -8.5t-36 -25.5t-46 -42t-36.5 -57.5t-17.5 -73t20 -87.5
t68 -102v0z" />
    <glyph glyph-name="wallet" unicode="&#xe661;" 
d="M914 220h-7v0h-48v0h-176q-32 0 -54.5 23.5t-22.5 55.5v39q0 30 21 51t50 21h237v-190zM859 30q0 -18 -12 -30.5t-30 -12.5h-663q-17 0 -29.5 12.5t-12.5 30.5v592q0 18 12.5 30.5t29.5 12.5h248l-134 -76h-98q-7 0 -12.5 -5.5t-5.5 -13t5.5 -12.5t12.5 -5h689v-102h-182
q-46 0 -78.5 -33.5t-32.5 -79.5v-39q0 -49 34.5 -84t82.5 -35h176v-150zM673 774q11 6 17 -5l98 -171h-422zM817 665q18 0 30 -12.5t12 -30.5v-33h-19l-44 76h21zM954 451h-47v117l0.5 1t0.5 1.5t-0.5 1.5l-0.5 1v49q0 38 -26.5 65t-63.5 27h-49l-43 75q-11 19 -32 25
t-40 -5l-165 -95h-334q-37 0 -63.5 -27t-26.5 -65v-592q0 -38 26.5 -65t63.5 -27h663q37 0 63.5 27t26.5 65v150h47v271zM727 355q-18 0 -30.5 -13t-12.5 -31t12.5 -31t30.5 -13t30.5 13t12.5 31t-12.5 31t-30.5 13z" />
    <glyph glyph-name="yishixiao" unicode="&#xe63c;" 
d="M226 333l17 -68q4 -14 18 -11l116 29q8 2 12 7q4 8 -3 46l17 -1q7 -43 2 -54q-6 -9 -19 -13l-126 -31q-26 -6 -32 21l-30 119l16 4l8 -32l125 31l-15 59l-153 -38l-4 16l170 42l22 -91zM454 488q-2 -17 -5 -33l46 12l-10 40l17 4l10 -40l76 19l4 -16l-76 -19l4 -15
q3 -17 4 -31l94 23l4 -15l-85 -21q29 -45 108 -55l-6 -16q-82 13 -114 64q-1 -25 -9 -44q-16 -37 -65 -68l-13 12q50 31 64 65q5 16 6 34l-85 -21l-4 16l88 22q0 12 -4 31l-4 15l-54 -14q-7 -23 -18 -40l-17 9q23 34 27 84zM688 532l42 10l4 -15l-105 -26l-4 15l47 12
q-8 10 -17 20l16 7q9 -12 17 -23zM677 494q-6 -35 -20 -63l-16 6q14 27 21 60zM707 425q4 18 5 37l16 -3q-1 -22 -6 -43q19 -11 34 -22l-8 -16q-13 10 -31 21q-13 -38 -41 -64l-13 12q27 25 39 61q-17 11 -35 19l7 14q16 -6 33 -16zM693 496l7 12q16 -7 40 -24l-8 -14
q-20 15 -39 26zM763 480q-3 -11 -8 -25l-13 9q14 44 7 110l17 1q1 -18 2 -37l64 16l4 -16l-20 -5q12 -54 -1 -99q28 -26 59 -36l-6 -17q-31 11 -58 37q-14 -35 -44 -63l-13 13q32 28 44 63q-18 21 -34 49zM766 504q17 -33 37 -55q8 38 -2 81l-33 -9q-2 -16 -2 -17zM542 -55
q-18 0 -36 2q-31 4 -59 11h-3q-7 2 -12 3l-15 3q-6 2 -15 4q-11 3 -14 4q-35 9 -60 17q-25 9 -57 29q-25 15 -52 40q-22 21 -43 49q-37 49 -60 116l-5 15q-1 3 -3 10q-1 4 -2 6l-4 16q0 1 -1 5q-2 8 -3 10q-1 5 -4 21q-1 4 -1 6l-0.5 1l-0.5 1q-4 21 -10 34v0
q-19 133 44 255q30 60 73 106q15 16 23 23l11 10q4 4 13 10q27 20 54 32q13 6 41 17q3 1 8 3t7 3q16 7 47 18q2 0 4.5 1t4.5 2q1 0 3 1t4 1q14 5 21 7q2 0 5 1l9 3q4 1 15 3q5 1 7 1l7 1q10 1 14 2h1h4h4q15 1 20 1h3q54 0 107 -14t96 -38q39 -21 77 -56q36 -34 58 -62
q46 -56 71 -118q17 -40 24 -86v-2q2 -8 1 -12q-1 -2 -2 -6q-1 -3 -1 -4v0q-1 -3 -1 -6l1 -2v-8q0 -1 1 -5q1 -13 1 -18q3 -45 -1 -88q-2 -26 -11 -63q0 -1 -0.5 -3t-0.5 -3q-2 -8 -3 -11l-6 -18q-6 -19 -14 -36q-20 -44 -45 -74q-26 -33 -69 -66l-27 -18q-8 -6 -15 -10
l-11 -8q-1 -1 -11 -7q-6 -4 -16 -9q-1 -1 -3 -2l-4 -2q-44 -25 -103 -40l-20 -4l-8 -1v0q-3 -1 -7.5 -1.5t-6.5 -0.5l-7 -1h-5h-1.5t-1.5 -1h-23zM97 313q1 -7 5 -21q1 -4 1 -5q10 -34 24 -60q16 -30 33 -53q20 -28 39 -48q38 -41 91 -80q24 -17 50 -33q32 -20 52 -27
q42 -17 95 -17q9 0 19 1h11q12 1 18 2h5l8 1q7 1 14 1l7 1l7 1l14 2q2 1 8 2q11 1 18 3q50 10 98 33q27 12 44 23q11 7 30 24l3.5 3.5l3.5 3.5q26 23 59 67q29 40 44 67q36 62 50 122q10 44 9 86q0 8 -1 18v5l-1 8v2q-1 2 -2 5v0q-1 1 -1.5 2t-0.5 2q-2 2 -4 5q-1 3 -3 11v1
v1q-8 40 -24 82q-8 24 -25 55t-41 60q-29 35 -58 56q-33 25 -77 47q-46 23 -91 34q-44 12 -102 14h-11h-8h-3.5h-4.5v0q-2 0 -7 -0.5t-6 -0.5h-14h-1q-17 -1 -27 -3q-8 0 -22 -2q-3 -1 -6 -1q-61 -10 -106 -46q-16 -11 -47 -36q-19 -15 -45 -40q-19 -20 -39 -46
q-16 -21 -33 -52q-60 -112 -49 -243v-1q-4 -15 0 -34v-1v-1zM203 474v0q-2 1 -2 3l2 8q2 11 5 22q4 15 12 33q4 11 9 20q3 5 10 14q0 1 1.5 3t1.5 3l3 4q18 26 29 39v0q10 10 22 21v0l2 2q15 11 22 17v0l4 4q13 11 20 17q4 2 13 7l2 1q7 4 14 7t19 7q8 3 12 5h1l1.5 0.5
t2.5 0.5q9 2 11 3t4 1q8 3 11 5h1l11 3q13 3 21 5v0q3 0 10 2q17 2 23 2v0q5 0 13 0.5t15 0.5h5h6q18 -1 26 -3v0q10 -3 15 -4q4 -1 8 -1q3 0 7 -1q19 -3 29 -6v0q34 -12 49 -21q7 -4 11 -6q3 -2 8 -5l2 -2l18 -12q18 -13 28 -21q6 -5 15 -15l1 -1q4 -3 5 -8v-2h-2v0
q-4 1 -8 5t-16 15q-15 13 -27 21q-10 7 -18 12l-10 5q-2 0 -11 5l-11 5l-6 3l-7 3q-20 7 -25 9l-27 9q-12 4 -29 5h-1h-5h-3h-2q-3 0 -5 1h-5h-5t-6 1h-10h-11h-5.5h-4.5q-7 -1 -20 -2q-7 -1 -12 -2q-8 -1 -21 -4q-7 -1 -12 -2v0v0h-1q-4 0 -10 -2q-1 -1 -2.5 -1.5
l-1.5 -0.5q-10 -3 -15 -6l-29 -15q-8 -5 -23 -13q-3 -2 -5 -3l-15 -9q-8 -4 -11 -7q-9 -6 -22 -20q-10 -11 -20 -21q-5 -5 -11 -13q-2 -2 -7 -8q-7 -8 -14 -21q0 -1 -1.5 -3t-1.5 -3q-6 -11 -8 -15l-2 -4q-5 -8 -8 -14l-14 -32q-5 -13 -7 -21l-3 -7q0 -2 -2 -2zM516 67v0
h-17q-3 1 -6 1h-11q-4 1 -15 4h-2l-9 3q-1 0 -3 0.5t-3 0.5q-7 2 -16 4q-4 1 -6 1q-7 1 -9 2q-5 2 -12 4l-1 0.5t-2 0.5l-3 1q-2 1 -5.5 2.5t-5.5 1.5q-2 1 -9 5l-1.5 1t-2.5 1q-1 1 -4 2t-4 2q-11 5 -16 9q-12 7 -31 22q-3 3 -8 7q-17 14 -28 25q-6 6 -15 16l-1 1
q-4 5 -4 9q-1 1 0 1.5t2 0.5q4 -1 8 -6q6 -7 16 -17q14 -15 26 -25q12 -9 40 -26l5 -3q2 0 4 -2q2 0 2 -1l13 -6l4 -2l8 -4q5 -2 11 -4l3 -1q0 -1 1 -1t2 -1q7 -2 11 -4q5 -2 8 -3l6 -3q7 -2 15 -4q4 -1 12 -2h2h2h1q9 -1 15 -2q2 0 6 -0.5t5 -0.5h6l16 -2l17 1h6h11
q3 1 8.5 1.5t8.5 0.5q9 1 25 4q1 0 4.5 1t4.5 1h1q18 2 52 19q8 5 11 6q16 10 29 17q5 3 16 9q7 4 12 8q13 9 24 21q7 9 20 23l18 22q8 10 15 22l11 22v1q8 15 10 20q7 16 14 33q4 15 7 23q0 2 1 4t1 3v1q1 2 2.5 1.5t1.5 -2.5q0 -1 -1 -8q-2 -13 -5 -24q-4 -16 -11 -36
q-9 -23 -23 -42q-1 -2 -3 -4q-4 -5 -5 -7q0 -1 -1 -2.5l-1 -1.5q-3 -5 -5 -8q-1 -1 -13 -17l-5 -7v0l-22 -22q-2 -1 -8 -6q-5 -3 -5 -4q-6 -4 -13 -10l-2 -3q-16 -13 -24 -19q-6 -3 -15 -8l-2 -2q-9 -4 -13 -6l-4 -2q-18 -7 -29 -10q-7 -2 -17 -4l-9 -3q-1 0 -1 -1h-2v0
q-1 0 -1 -1v0q-3 -1 -4 -1q-2 -1 -5 -1.5t-4 -1.5q-16 -4 -25 -5l-18 -2q-3 0 -11 -1h-3h-3h-18v0zM469 76q9 -3 14 -3q3 -1 10 -1q4 0 6 -1h17h17h6q8 1 11 1h2h-1h-1h-11h-6l-17 -1v0l-17 2h-3h-3l-4 0.5t-6 0.5v0q-5 1 -14 2zM335 130q11 -9 20 -14q5 -3 15 -8q4 -2 9 -4
l4 -3q7 -3 8 -4q6 -2 11 -4q2 0 3 -1q1 0 2 -0.5t2 -0.5q8 -3 11 -4t7 -2q-5 2 -7 3v0q-3 1 -11 5h-1t-2 1l-3 1q-8 3 -10 4q-3 1 -9 4q-1 1 -2 1.5t-2 0.5l-13 7l-6 3l-5 3q-12 6 -21 12zM716 134q-1 0 -2.5 -1t-2.5 -1q-10 -6 -15 -10v0q-12 -6 -29 -16h-1q-3 -2 -11 -6
q-3 -2 -4 -3q1 1 13 5l3 2q3 1 13 6l3 1q8 5 14 9q9 6 19 14zM836 304q-6 -17 -13 -32q-4 -9 -9 -20v0q-7 -14 -12 -22q-7 -13 -15 -23l-18 -23v0q-14 -14 -21 -22q0 -1 -1 -1.5t-1 -1.5l2 2q14 12 22 22l5 6q7 9 13 17q2 3 5 8q1 3 2 4q2 3 6 8q1 2 2 3q14 19 23 42
q6 16 10 33z" />
    <glyph glyph-name="tuangou" unicode="&#xe61b;" 
d="M983 226q-16 -2 -35 -5q-79 -13 -116 -7q-17 3 -34 8l117 196l-2 7q-57 275 -79 377q-12 58 -51 77q-36 18 -78 -1l-396 -99l-289 -484q-23 -39 -11.5 -83t49.5 -67l419 -249q38 -23 82 -12t67 50l151 253q25 -9 49 -13q43 -7 128 7q1 0 14.5 2t20.5 3zM591 -46
q-14 -24 -41.5 -31t-52.5 7l-418 250q-24 14 -31 41.5t7 52.5l280 470l384 95l2 1q1 1 7.5 3t16.5 3t20 -3q21 -10 29 -50q11 -50 42.5 -199.5t35.5 -168.5l-112 -188q-81 39 -106 105q-12 32 -39 153l48 12l-26 114l-117 -30l31 -114l25 7q27 -121 40 -157q24 -60 87 -103
q7 -5 16 -11q14 -8 21 -11z" />
    <glyph glyph-name="xiangshangjiantou-copy" unicode="&#xe63d;" 
d="M140 831h741v-52h-741v52zM155 372l36 -36l294 293v-693h51v695l294 -293l36 36l-354 354z" />
    <glyph glyph-name="zhengque1" unicode="&#xe63e;" horiz-adv-x="1025" 
d="M347.5 13q-26.5 0 -45.5 19l-283 283q-19 19 -19 45.5t18.5 45t45.5 19t45 -18.5l239 -238l567 566q19 19 45.5 19t45 -19t18.5 -45.5t-18 -44.5l-613 -612q-19 -19 -45.5 -19z" />
    <glyph glyph-name="yichenggong" unicode="&#xe65a;" 
d="M267 757q-101 -67 -154 -173t-46.5 -224t73 -219t172.5 -154t224 -46.5t219 73t154 172.5t46.5 224t-73 219t-172.5 154t-224 46.5t-219 -72.5v0zM735 44q-93 -61 -201.5 -67t-205.5 42.5t-158 141.5t-67 201.5t42.5 205.5t141.5 158t201.5 67t205.5 -42.5t158 -141
t67 -201t-42.5 -206t-141.5 -158.5v0zM735 44zM301 704q-86 -57 -131.5 -148t-40 -192.5t62.5 -188t148 -132t192.5 -40t188 62.5t132 148t40 192.5t-62.5 188t-148 132t-192.5 40t-188.5 -62.5v0zM711 82q-83 -55 -179.5 -60t-183.5 38t-141 125.5t-59.5 179.5t38 183.5
t126 140.5t179 59.5t183.5 -37.5t141 -126t59.5 -179.5t-38 -183t-125.5 -140.5v0zM711 82zM319 396q3 45 25.5 84.5t60.5 65.5q39 25 85.5 30t86.5 -11l19 13q-47 21 -101 17t-100 -34t-70.5 -77.5t-24.5 -100.5l19 13v0zM319 396zM703 375q-3 -45 -25.5 -84.5t-61.5 -65.5
t-85 -30.5t-86 10.5l-19 -12q46 -22 100.5 -18t100.5 34.5t70.5 77.5t24.5 100l-19 -12v0zM703 375zM324 670l28 -23l31 20l-13 -34l29 -23l-37 2l-13 -34l-10 35l-36 1l30 20zM324 670zM221 564l35 -8l20 31l2 -37l36 -8l-34 -14l3 -36l-24 27l-33 -13l19 31zM221 564z
M462 722l16 -32l36 5l-26 -26l16 -32l-32 17l-27 -26l7 36l-33 17l36 6zM462 722zM609 712l1 -37l35 -10l-35 -12l1 -37l-22 29l-35 -12l21 30l-22 29l35 -10zM609 712zM172 425l36 7l5 37l17 -32l36 7l-25 -27l18 -32l-33 15l-25 -27l5 37zM172 425zM698 100l-29 23
l-30 -20l13 35l-29 23l37 -2l13 34l9 -35l37 -2l-31 -20zM698 100zM801 206l-36 9l-19 -31l-2 36l-36 9l34 14l-3 36l24 -28l33 14l-19 -31zM801 206zM560 48l-16 33l-36 -5l26 25l-16 33l32 -17l26 25l-6 -36l32 -17l-36 -5zM560 48zM413 59l-1 36l-35 11l35 12l-1 36
l22 -29l35 12l-21 -30l22 -29l-35 11zM413 59zM849 346l-35 -8l-5 -36l-18 32l-36 -7l25 26l-18 32l34 -15l25 27l-5 -36zM849 346zM424 312q15 2 26 5q2 -3 4 -9q4 -12 6 -19q7 -18 -18 -34l-59 -38q-29 -18 -47 11l-38 58l20 12l9 -13l65 43l-18 28l-89 -57l-12 18l109 70
l42 -65l-85 -55l15 -25q9 -13 22 -5l51 32q13 10 9 19q-2 4 -8 15q-3 6 -4 9zM528 365q16 -26 -2 -39q-4 -2 -9 -5.5l-5 -3.5q-9 11 -16 18q6 2 11 5q8 5 2 14q-6 12 -10 17l-19 -12q26 -42 26 -70q-12 2 -24 2q1 25 -22 59l-29 45l63 41q-3 6 -10 14q-1 2 -2.5 4.5
t-2.5 3.5l20 12l14 -22l19 12q-2 1 -4 1q-10 4 -17 6l9 17q3 -1 11 -4q8 -2 13 -4l-7 -12l15 9l11 -16l-39 -25q14 -20 26 -34q0 20 -3 40l21 2q5 -33 3 -63q7 -5 12 -7q4 -2 6 1q1 1 0 5q-4 13 -10 23q8 1 22 3q7 -13 11 -29q3 -12 -8 -21q-15 -9 -36 1q-3 -15 -9 -31
q-12 5 -23 6q9 20 12 41q-18 17 -43 51l-46 -29l10 -16l39 25q4 -6 20 -35zM629 393l-18 17l8 8q5 6 7 8l-38 59l-16 -10l-12 18l50 33l12 -19l-15 -10l35 -54q7 9 14 17q6 -10 13 -19q-14 -15 -36 -43q-3 -4 -4 -5zM747 477q11 -21 -8 -35q-6 -5 -20 -14q-7 8 -17 16
q10 6 18 11q10 7 3 17q-11 19 -37 62l-21 -14q9 -15 14 -25q24 -49 8 -91q-12 3 -25 5q21 43 -15 100l-15 -10l-12 17l16 11q-3 3 -7.5 11t-6.5 11l17 11q2 -2 7 -10t8 -12l40 25q38 -60 53 -86z" />
    <glyph glyph-name="sanjiao1" unicode="&#xe642;" 
d="M750 439l-238 -238l-238 238h476z" />
    <glyph glyph-name="tripple-up" unicode="&#xe643;" 
d="M274 265l238 238l238 -238h-476z" />
    <glyph glyph-name="shangpin" unicode="&#xe628;" 
d="M512 384q-76 0 -134 49t-72 123q20 14 20 38q0 19 -13.5 32.5t-33 13.5t-33 -13.5t-13.5 -32.5q0 -30 26 -42q16 -92 87.5 -153t166 -61t166 61t86.5 153q27 12 27 42q0 19 -14 32.5t-33 13.5t-33 -13.5t-14 -32.5q0 -24 20 -38q-13 -74 -71.5 -123t-134.5 -49v0z
M838 803h-23v0h-163v0h-3v0q-9 -1 -14.5 -7.5t-5.5 -15.5t5.5 -15.5t14.5 -7.5v0h189q19 0 33 -14t14 -33v-652q0 -19 -14 -32.5t-33 -13.5h-652q-19 0 -32.5 13.5t-13.5 32.5v652q0 19 13.5 33t32.5 14h166v0q9 1 14.5 7.5t5.5 15.5t-5.5 15.5t-14.5 7.5v0h-3v0h-163v0
q-38 0 -65.5 -27t-27.5 -66v-652q0 -38 27.5 -65.5t65.5 -27.5h652q39 0 66 27.5t27 65.5v652q0 39 -27 66t-66 27v0zM838 803z" />
    <glyph glyph-name="jilu-copy-copy" unicode="&#xe63a;" 
d="M519 343l282 283q22 21 52 21t51 -21l26 -26q21 -21 21 -51t-21 -52v0l-283 -282l-206 -74zM504 201l123 46l7 7l-77 77l-7 -7zM583 357l77 -78l193 193l-78 77zM904 575l-25 26q-11 10 -26 10t-26 -10l-26 -26l77 -78l26 27q11 10 11 25t-11 26v0zM551 690v-134
q0 -15 10.5 -25.5t25.5 -10.5h57l-37 -36h-20q-30 0 -51.5 21t-21.5 51v164h-327q-15 0 -25.5 -10.5t-10.5 -25.5v-692q0 -15 10.5 -25.5t25.5 -10.5h509q15 0 26 10.5t11 25.5v257l34 36v-293q0 -30 -20.5 -51t-50.5 -21h-509q-30 0 -49.5 21t-19.5 51v692q0 30 19.5 50
t49.5 20h352l164 -174l-25 -26zM551 690zM198 63h490v-43h-490v43zM198 238h245v-42h-245v42zM198 401h245v-43h-245v43zM198 569h245v-42h-245v42z" />
    <glyph glyph-name="x2" unicode="&#xe640;" 
d="M859 768l37 -37l-347 -347l-37 37zM128 731l37 37l347 -347l-37 -37zM165 0l-37 37l347 347l37 -37l-347 -347v0zM475 384l37 37l37 -37l-37 -37zM859 0l-347 347l37 37l347 -347l-37 -37v0z" />
    <glyph glyph-name="huoche" unicode="&#xe662;" 
d="M450 109q-24 0 -41.5 17t-17.5 42v535q0 24 17.5 41.5t41.5 17.5h515q24 0 41.5 -17.5t17.5 -41.5v-535q0 -25 -17.5 -42t-41.5 -17h-121v18q0 35 -25 60t-60 25t-60 -25t-25 -60v-18h-224v0zM640 145q6 43 40 72.5t79 29.5t79 -29.5t41 -72.5h86q10 0 16.5 6.5t6.5 16.5
v535q0 10 -6.5 16.5t-16.5 6.5h-515q-9 0 -16 -6.5t-7 -16.5v-535q0 -10 7 -16.5t16 -6.5h190v0zM59 109q-24 0 -41.5 17t-17.5 42v216q0 20 25 61q21 34 54 74q32 40 60 66q34 33 54 33h175q24 0 41.5 -17.5t17.5 -41.5v-391q0 -25 -17.5 -42t-41.5 -17h-59v18q0 35 -25 60
t-60 25t-60 -25t-25 -60v-18h-80v0zM104 145q7 43 41 72.5t79 29.5t79 -29.5t40 -72.5h25q10 0 16.5 6.5t6.5 16.5v391q0 10 -6.5 16.5t-16.5 6.5h-174q-10 -3 -35 -27q-26 -26 -56 -62q-30 -38 -48.5 -68.5t-18.5 -40.5v-216q0 -10 6.5 -16.5t16.5 -6.5h45v0zM0 335v49
q0 41 87 145l5 7h152q25 0 42 -17.5t17 -41.5v-83q0 -24 -17 -41.5t-42 -17.5h-244v0zM244 500h-135q-30 -37 -51 -69q-22 -36 -22 -47v-13h208q10 0 17 7t7 16v83q0 9 -7 16t-17 7v0zM224 6q-50 0 -85.5 35.5t-35.5 85.5t35.5 85t85.5 35t85.5 -35t35.5 -85t-35.5 -85.5
t-85.5 -35.5v0zM224 212q-35 0 -60 -25t-25 -60t25 -60t60 -25t60 25t25 60t-25 60t-60 25v0zM759 6q-50 0 -85.5 35.5t-35.5 85.5t35.5 85t85.5 35t85.5 -35t35.5 -85t-35.5 -85.5t-85.5 -35.5v0zM759 212q-35 0 -60 -25t-25 -60t25 -60t60 -25t60 25t25 60t-25 60t-60 25
v0z" />
    <glyph glyph-name="jxjzzhimalogo" unicode="&#xe614;" 
d="M781 374q-7 67 -44 128q-42 69 -118 127q-49 39 -99 39q-27 0 -58 -11q-19 -7 -42 -28.5t-35 -52.5l-16 -13q-139 -112 -127 -259q5 -68 41 -125.5t80 -82.5q57 -38 136 -38q64 0 121.5 25.5t95.5 71.5q34 39 52 93q20 62 13 126zM499 86q-71 0 -121 33l-1 1
q-39 22 -70.5 73.5t-36.5 113.5q-11 131 116 234l20 16l3 2l1 3q10 27 28.5 45t32.5 23q27 10 49 10q40 0 81 -33q137 -104 152 -236q6 -48 -6.5 -94.5t-25.5 -67t-26 -36.5q-34 -41 -86 -64t-110 -23zM722 296q0 19 -13.5 33t-32.5 14q-10 0 -18 -4v0v0q-1 0 -4 -1
q-61 -25 -142 -25q-82 0 -143 25q-9 5 -21 5q-19 0 -32.5 -14t-13.5 -33q0 -9 3 -17q18 -70 75.5 -115.5t131.5 -45.5q75 0 132.5 46t74.5 116q3 8 3 16zM512 353q40 0 68.5 7.5t30.5 17.5v1q0 1 -1 3q-3 30 -31 50.5t-67 20.5t-67 -20.5t-31 -50.5q-1 -2 -1 -3v-1
q2 -10 30.5 -17.5t68.5 -7.5z" />
    <glyph glyph-name="iconfontwzzm" unicode="&#xe62;" horiz-adv-x="1046" 
d="M452 679q-9 23 -9 48q-125 -30 -207.5 -129.5t-87.5 -230.5q23 11 49 12q9 109 80 192t175 108v0zM530 633q36 0 61.5 25.5t25.5 62t-25.5 62t-62 25.5t-62 -25.5t-25.5 -62t25.5 -62t62.5 -25.5v0zM530 764q18 0 30.5 -12.5t12.5 -30.5t-12.5 -31t-30.5 -13t-31 13
t-13 31t13 30.5t31 12.5v0zM903 255q14 54 14 97q0 113 -59.5 205.5t-157.5 140.5q-6 -24 -19 -44q85 -42 136.5 -123t51.5 -179q0 -37 -11 -81h-0.5h-1.5q-36 0 -61.5 -25.5t-25.5 -61.5t25.5 -62t62 -26t62 26t25.5 62q0 45 -41 71v0zM856 140q-18 0 -30.5 13t-12.5 31
t12.5 30.5t31 12.5t31 -12.5t12.5 -30.5t-12.5 -31t-31.5 -13v0zM306 205q0 36 -25.5 62t-61.5 26t-61.5 -26t-25.5 -62t25.5 -61.5t61.5 -25.5t61.5 25.5t25.5 61.5v0zM219 162q-18 0 -30.5 12.5t-12.5 30.5t12.5 31t30.5 13t31 -13t13 -31t-13 -30.5t-31 -12.5v0zM532 14
q-77 0 -144.5 33.5t-115.5 91.5q-21 -14 -47 -19q54 -71 134 -112.5t173 -41.5q122 0 222 72q-19 15 -31 36q-87 -60 -191 -60v0v0zM674 332q-4 33 -23 64q-21 35 -59 64q-25 20 -50 20q-14 0 -30 -6q-9 -3 -20.5 -14t-17.5 -27l-8 -6q-70 -56 -64 -130q2 -35 20.5 -64
t40.5 -41q28 -20 68 -20q69 0 110 49q17 20 26 47q10 32 7 64z" />
    <glyph glyph-name="gouwuche-copy1" unicode="&#xe62e;" 
d="M356 71q-26 0 -44 -18t-18 -44t18 -44t44 -18t44 18t18 44t-18 44t-44 18v0v0v0zM792 71q-26 0 -44.5 -18t-18.5 -44t18.5 -44t44.5 -18t44 18t18 44t-18.5 44t-43.5 18v0v0v0zM853 102h-505q-34 0 -60 23.5t-30 57.5l-53 372l-30 174q-1 11 -9.5 19t-19.5 8h-39
q-13 0 -22.5 9t-9.5 22t9.5 22t22.5 9h39q34 0 60.5 -23.5t30.5 -56.5l30 -173l53 -374q1 -10 9.5 -18t18.5 -8h505q13 0 22.5 -9t9.5 -22t-9.5 -22.5t-22.5 -9.5v0v0zM387 227q-12 0 -21 8.5t-10 20.5q-1 13 7.5 22.5t21.5 10.5l422 31q11 0 20 8t10 18l49 281q2 18 -8 29
q-6 7 -15 7h-539q-12 0 -21.5 9t-9.5 22t9.5 22t21.5 9h539q37 0 62 -28q28 -32 23 -79l-49 -281q-4 -33 -30 -56t-60 -23l-420 -31h-2v0v0zM387 227z" />
    <glyph glyph-name="xiabiao" unicode="&#xe644;" 
d="M91 26h717q45 0 79.5 24.5t34.5 64.5v717zM838 352l-204 -248q-7 -8 -17 -8q0 -1 -1 -1q-9 0 -16 7l-121 117q-7 6 -7.5 15.5t6 16.5t16 7t16.5 -6l104 -100l188 229q6 8 15.5 9t17 -5.5t8.5 -15.5t-5 -17z" />
    <glyph glyph-name="oversea" unicode="&#xe647;" 
d="M512 876q-105 0 -177 -8t-129.5 -30t-91.5 -56t-56 -91.5t-30 -129.5t-8 -177t8 -177t30 -129.5t56 -91.5t91.5 -56t129.5 -30t177 -8t177 8t129.5 30t91.5 56t56 91.5t30 129.5t8 177t-8 177t-30 129.5t-56 91.5t-91.5 56t-129.5 30t-177 8zM519 649h1q11 0 30 -2h2
q16 -2 29.5 -4.5t22.5 -6t14 -5.5t10 -5t6 -3q1 -1 2 -2.5t2.5 -7.5t1.5 -14q-1 -10 -9 -15.5t-15 -5.5h-7q-24 3 -52.5 -21.5t-28.5 -59.5q1 -88 -53 -101q-22 -5 -49 9l-15 9q-33 22 -56.5 14.5t-35.5 -25.5t-16 -43q-1 -8 0 -19.5t-2.5 -22t-13.5 -9.5q-20 0 -26 19.5
t-6 56.5q0 109 77.5 186.5t186.5 77.5zM232 265q5 21 35 34q8 4 9 2q0 -1 -3 -3q-12 -9 -9 -16.5t17 -7.5l4.5 1l13.5 3t21 4.5t28 7t32 10.5t34.5 14t34.5 17q13 7 25.5 15.5t25.5 19.5t21.5 18t24.5 21.5t22 19.5q5 3 11 3q17 0 31.5 -18.5t7.5 -33.5q-2 -6 -5 -8
q-50 -40 -91 -63t-97 -43q-48 -17 -128 -25q-17 -1 -30 1t-19.5 5.5t-10 8.5t-4.5 8t-1 5zM780 344q-4 -25 -13 -49v0q-27 -78 -95 -127t-152 -49q-107 0 -184 76q-11 10 -29 34h6q21 0 41 4q17 -17 37 -31q24 -10 36 0t32 46q7 18 24.5 30t34.5 13.5t28.5 -13.5t8.5 -47
q4 -35 30 -37q24 -3 34 20q8 18 -2 41q-12 25 -6.5 43.5t18.5 29t34.5 7t41.5 -20.5q20 -7 34 9q8 16 12 31q2 8 4.5 12t4.5 4.5t5 0.5q2 1 3 1q5 0 8.5 -2.5t4.5 -4.5l2 -2zM757 513q-8 -7 -6 -21q4 -31 12 -96q0 -6 -5 -12t-11 -5q-4 1 -8 9l-33 65l-6 10q-25 -18 -29 -21
q-3 -2 -3 -9q-2 -16 -2 -25q1 -4 -3 -8.5t-7 -5.5l-4 -2q-8 21 -13 32q-4 8 -12 14q-3 2 -10.5 6.5t-13 8.5t-6.5 6l12 8h16q8 -1 13 -1q7 0 13 5q2 2 22 24q-23 15 -80 52q5 14 9.5 16.5t17.5 -0.5q6 -2 39 -10t50 -12q9 -3 18 4q22 15 37 22q11 5 18 5q19 0 4 -26
q-10 -17 -29 -33z" />
    <glyph glyph-name="seasame" unicode="&#xe649;" 
d="M512 876q-105 0 -177 -8t-129.5 -30t-91.5 -56t-56 -91.5t-30 -129.5t-8 -177t8 -177t30 -129.5t56 -91.5t91.5 -56t129.5 -30t177 -8t177 8t129.5 30t91.5 56t56 91.5t30 129.5t8 177t-8 177t-30 129.5t-56 91.5t-91.5 56t-129.5 30t-177 8zM389 207q-15 0 -25 10
t-10 25q0 28 11 58t24 30t24 -30t11 -58q0 -15 -10 -25t-25 -10zM541.5 207q-14.5 0 -25 10t-10.5 25q0 28 11.5 58t24 30t24 -30t11.5 -58q0 -15 -10.5 -25t-25 -10zM644 164q0 -10 -7 -17t-18 -7v0q-10 0 -17 7t-7 17v245h-108v-246q0 -10 -7.5 -17.5t-17.5 -7.5v0
q-10 0 -17.5 7.5t-7.5 17.5v246h-93v-252q0 -10 -7 -17t-17 -7h-1q-10 0 -17 7t-7 17v406q0 10 7 17t17 7h1h2h3h175v24q0 10 7 17t17 7h1q10 0 17 -7t7 -17v-24h154q10 0 17 -7t7 -17v0q0 -10 -7 -17.5t-17 -7.5h-359v-80h93v17q0 10 7.5 17t17.5 7v0q10 0 17.5 -7t7.5 -17
v-17h108v18q0 10 7 17t17 7v0q11 0 18 -7t7 -17v-18h59q10 0 17 -7.5t7 -17.5v0q0 -10 -7 -17t-17 -7h-59v-245v0zM694 207q-15 0 -25 10t-10 25q0 28 11 58t24 30t24 -30t11 -58q0 -15 -10 -25t-25 -10z" />
    <glyph glyph-name="1122" unicode="&#xe63b;" 
d="M514 162q-81 0 -143 51l-10 -12q67 -55 153 -55q87 0 154 55.5t83 140.5l-15 3q-15 -80 -77.5 -131.5t-144.5 -51.5v0zM667 574q-66 55 -153 55q-86 0 -153 -55.5t-84 -140.5l15 -3q16 80 78.5 132t143.5 52t144 -51l9 11v0zM803 220l-15 14l-7 -21l-19 -12l18 -11l4 -21
l18 14l21 -2q-51 -76 -132.5 -120.5t-176.5 -44.5q-100 0 -186 50t-135.5 135.5t-49.5 186t49.5 186.5t135.5 135.5t186.5 49.5t186 -49.5t135.5 -135.5t50 -186q0 -113 -63 -207l-7 20l9 20l-22 -1v0zM514.5 777q-105.5 0 -195.5 -52t-142 -142t-52 -195.5t52 -195
t142 -141.5t195.5 -52t195 52t142 141.5t52.5 195t-52.5 195.5t-142 142t-195 52zM514 -46q-88 0 -168 34.5t-138 92.5t-92.5 138.5t-34.5 168.5t34.5 168t92.5 138t138 92.5t168 34.5t168.5 -34.5t138.5 -92.5t92.5 -138t34.5 -168t-34.5 -168.5t-92.5 -138.5t-138.5 -92.5
t-168.5 -34.5v0zM514 852q-94 0 -180 -37t-148 -99t-99 -148t-37 -180.5t37 -180t99 -148t148 -99t180.5 -36.5t180.5 36.5t148 99t99 148t37 180t-37 180.5t-99 148t-148 99t-181 37v0zM380 115l-16 16l-6 -21l-20 -9l18 -13l4 -22l17 12l22 -4l-7 21l10 19l-22 1v0z
M544 91l-21 -6l-20 10v-22l-15 -14l21 -8l10 -19l13 17l22 2l-13 18zM680 128l-17 -13l-22 1l8 -19l-8 -20l22 1l17 -13l5 20l19 11l-19 12l-5 20v0zM259 549l16 -15l7 21l21 10l-18 12l-3 22l-18 -13l-22 3l6 -20l-11 -20h22v0zM491 678l21 6l20 -10v22l15 14l-21 8l-10 19
l-13 -17l-22 -2l13 -18l-3 -22v0zM666 653l15 -16l7 21l19 9l-18 14l-4 21l-17 -12l-22 4l7 -21l-10 -19l23 -1v0zM353 630l17 14l23 -2l-9 20l9 19l-23 -1l-17 14l-5 -21l-19 -11l19 -12l5 -20v0zM385 467q22 -7 38 -15l-7 -15l29 11l9 -22l-72 -28q19 -42 34 -63
q3 -5 8 -11q5 33 2 71l25 -1q3 -53 -7 -93q7 -7 14 -12q17 -12 23 -10q5 2 -4 39l25 -3q10 -54 -7 -60q-16 -6 -42 8q-8 5 -17 12q-13 -36 -40 -63l-21 15q29 29 42 68q-9 10 -20 24q-19 26 -39 70l-78 -30l14 -35l59 23q25 -66 26 -86q0 -17 -19 -25q-8 -3 -21 -7l-15 19
q20 6 25 8q6 3 5 12t-15 48l-37 -14l1 -1q24 -68 12 -120l-24 9q11 42 -11 102l-31 80l100 39q-5 11 -15 35l24 9q5 -13 14 -35l38 14q-16 8 -34 13zM532 471l-33 -13l-8 23l89 34l8 -23l-33 -12l42 -109q18 14 31 27l9 -23q-36 -33 -78 -62l-15 21q18 11 33 21zM613 551
l23 9l17 -43l60 23q47 -121 55 -151q5 -29 -32 -44q-5 -1 -23 -7l-14 19q16 5 25 8q21 8 18 26q-4 16 -43 118l-38 -14l2 -5q39 -106 3 -176l-26 9q35 63 0 158l-2 5l-34 -13l-9 22l34 13z" />
    <glyph glyph-name="2211" unicode="&#xe645;" 
d="M512 157q-81 0 -143 51l-10 -12q67 -55 153 -55q87 0 154 55.5t83 140.5l-15 3q-15 -80 -78 -131.5t-144 -51.5v0zM665 570q-67 54 -153 54q-87 0 -154 -55.5t-83 -140.5l15 -3q15 80 78 132t144 52t143 -51l10 12v0zM801 215l-16 14l-6 -21l-19 -11l18 -12l4 -21l17 14
l22 -2q-51 -76 -132.5 -120.5t-176.5 -44.5q-101 0 -186.5 50t-135.5 135.5t-50 186.5t50 186.5t135.5 135t186.5 49.5t186.5 -49.5t135.5 -135t50 -186.5q0 -113 -63 -206l-7 19l9 20l-22 -1v0zM512 772q-106 0 -195.5 -52t-141.5 -142t-52 -195.5t52 -195t141.5 -141.5
t195.5 -52t195.5 52t141.5 141.5t52 195t-52 195.5t-141.5 142t-195.5 52zM512 -51q-88 0 -168.5 34.5t-138.5 92.5t-92 138.5t-34 168.5t34 168t92 138t138.5 92.5t168.5 34.5t168.5 -34.5t138.5 -92.5t92 -138t34 -168t-34 -168.5t-92.5 -138.5t-138.5 -92.5t-168 -34.5v0
zM512 847q-94 0 -180 -37t-148.5 -99t-99 -148t-36.5 -180t36.5 -180t99 -148.5t148.5 -99t180 -36.5t180 36.5t148.5 99t99 148t36.5 180t-36.5 180.5t-99 148t-148.5 99t-180 37v0zM377 110l-15 16l-7 -21l-19 -9l18 -13l4 -22l17 12l22 -4l-7 21l9 19l-22 1v0zM542 86
l-21 -6l-20 10v-22l-16 -14l21 -8l11 -19l13 17l21 3l-13 17zM677 124l-17 -14l-22 1l9 -19l-9 -20l22 1l17 -13l6 20l19 12l-19 11l-6 21v0zM257 545l15 -16l8 21l20 10l-17 13l-3 21l-18 -13l-22 3l6 -20l-11 -20l22 1v0zM488 673l21 6l20 -10v22l16 14l-21 8l-10 19
l-13 -17l-23 -2l14 -18l-4 -22v0zM663 648l16 -16l6 21l20 9l-18 14l-4 21l-18 -12l-21 4l7 -21l-10 -19l22 -1v0zM351 625l17 14l23 -2l-9 20l9 19l-23 -1l-17 14l-5 -21l-19 -11l19 -11l5 -21v0zM299 400q1 -18 0 -32l42 16l-16 41l23 9l16 -41l79 31l9 -23l-80 -30l5 -12
q5 -16 9 -31l98 37l8 -22l-87 -33q36 -42 119 -41l-5 -25q-88 3 -129 51q1 -23 -4 -43q-12 -43 -62 -83l-20 14q49 41 59 78q3 16 2 33l-86 -33l-9 22l92 35q-3 17 -8 32l-5 12l-53 -21q-5 -24 -14 -44l-27 9q22 41 19 94h25zM610 525l59 -154l-21 -8l-51 133l-52 -20
l51 -133l-21 -8l-59 154zM567 467l21 8l28 -75q16 -43 13 -73q-3 -28 -25 -51l-20 15q20 21 23 44q1 24 -11 57zM644 355q26 -11 49 -26l-11 -23q-19 15 -48 29zM672 448q-3 -14 -7 -23l-20 12q13 44 -5 110l24 6q4 -19 7 -36l67 26l9 -22l-14 -6q22 -61 15 -113
q26 -16 59 -24l-4 -27q-34 8 -60 25q-9 -31 -28 -58l-20 16q20 26 27 57q-28 23 -50 57v0zM726 418q2 41 -14 89l-39 -15v-7q22 -42 53 -67v0z" />
    <glyph glyph-name="china" unicode="&#xe64a;" 
d="M558 363h-15h-5h-5q-1 4 -4 13.5t-5 14.5v-1q-7 -19 -9 -26l-1 -1h-1h-9h-18h-1v-1q16 -11 24 -17q-4 -13 -9 -29v0q7 6 24 18v0v0v0q12 -9 24 -17v-1v0v0v0v1l-3 9q-3 10 -6 18q0 1 1 1v1q4 2 11 7.5t11 8.5h1v1h-5v0zM579 383l9 3q1 0 1 -1q1 -1 3 -4t2 -4q1 0 1 -1v1
q1 9 1 10l1 1q1 0 9 2h1l-0.5 0.5l-0.5 0.5q-2 0 -5 1.5l-4 2l-1 0.5q1 7 1 10v0v1q-1 -1 -7 -9q-4 2 -10 4h-1l6 -9q-1 -1 -3.5 -4t-3.5 -5v0h1zM629 368q1 4 2 5q-2 0 -5 -2t-5 -2q-1 0 -2 1.5t-2 2.5q-3 3 -4 3q0 -1 0.5 -4.5t1.5 -6.5q-2 0 -5.5 -2t-4.5 -3v0
q6 -1 10 -1l1 -1q0 -2 0.5 -4.5t0.5 -4v-2.5l0.5 0.5l0.5 0.5q3 5 4 8q1 1 2 1t9 -2h1l-3 3.5t-5 4.5q1 2 3 5zM633 327h-5h-5h-1l-3 9v0.5v0.5v0q-3 -7 -4 -11h-5.5h-5.5v0q2 -1 5 -3t4 -3q0 -2 -1 -6t-2 -5v0q2 1 5 3t4 4q3 -3 9 -7v1q0 1 -3 9q0 1 1 1q5 5 7 6v0.5
t0.5 0.5h0.5h-1zM601 296q-4 1 -4.5 1t-0.5 1v0q1 7 1 10v1v0q-1 -2 -7 -9q-1 0 -2.5 1t-2.5 1t-3 1t-3 1v0q3 -3 6 -9q-3 -4 -7 -9h1q1 1 4 1.5t5 0.5q1 1 1 0q2 -3 5 -8l1 -1q0 2 0.5 6t0.5 5v0.5t1 0.5q4 1 9 2h1q-1 0 -1 1q-1 0 -2.5 0.5t-2.5 1.5zM512 876
q-105 0 -177 -8t-129.5 -30t-91.5 -56t-56 -91.5t-30 -129.5t-8 -177t8 -177t30 -129.5t56 -91.5t91.5 -56t129.5 -30t177 -8t177 8t129.5 30t91.5 56t56 91.5t30 129.5t8 177t-8 177t-30 129.5t-56 91.5t-91.5 56t-129.5 30t-177 8zM610 151v0v-1q-1 -2 -4 -4t-6 -3t-3 0
h-1v0q-1 -1 -5 0.5t-4 3.5h-1q-2 7 1.5 11t3.5 7q1 0 7 1.5t10 1.5h3q4 -1 4 -3q1 -1 0.5 -2.5t-2.5 -5t-3 -6.5zM743 225q0 -1 -0.5 -3l-0.5 -2q-1 -1 -3 -2.5t-2 -2.5v0q-1 -1 -1.5 -5.5t-2.5 -7.5v0v0v0q0 1 -2 2.5t-2 3.5v0q-5 6 -6 8q1 9 1 10v0q0 3 1.5 5.5t1.5 3.5v0
q0 8 7 14q1 2 5 2q1 0 1 -1v0q4 0 4.5 -1.5t-0.5 -4t-1 -3.5v0q0 -1 0.5 -8.5t-0.5 -7.5zM802 543q-1 -5 -2 -6t-10 -1l-2 -1.5t-2 -2.5q-2 -4 3 -13.5t4 -13.5v0q0 -1 -2 -8q0 -2 -1 -3q0 1 -6 1q-1 2 -1 5q0 2 -1 2t-2 -2v0q-2 -8 -5 -10q-1 -2 -6 -2v0q-1 0 -1 -1
q4 -2 3 -5q1 -2 -1 -4t-3 -1q-2 0 -5.5 1t-5.5 1v0q-1 0 -2 -3l-1 -3q-1 -2 -4 -5.5l-3 -3.5v0v-1q-1 0 -7 -5q0 -1 -1 -3.5t-1 -3.5q-1 -1 -9 -4t-11 -9q0 -3 -3 -7v0q-1 0 -3.5 -0.5t-4.5 -0.5q0 7 5 7l-1 2q-3 5 -2 5v1h1q0 1 2 4.5t1 6.5q-1 5 -7 3l-10 -12.5l-10 -12.5
q-1 -1 -11 -4q-2 -1 -2.5 -4t2.5 -5q0 -1 0.5 -2.5t0.5 -3.5q1 0 4 1q5 2 7 1q1 -4 1 -6v0q2 -5 6 -5v0v0q2 0 5.5 5.5t8.5 5.5q2 1 5 -1q4 -1 7 -1q2 1 6 -1q0 -6 -1 -6t-5.5 -2.5t-5.5 -1.5q1 -2 -4 -6.5t-6 -4.5l-2 -4l-1 -1q-1 -1 -1 -2h-1q-1 -5 -1 -9v-0.5v-0.5v0
l1 -0.5l1 -0.5q8 -1 13 -13t6 -13v0v0q2 -2 6 -4.5t6 -3.5v0q3 -2 -2 -3l-3 -1q7 -4 8 -8v0q0 -3 -3 -5.5t-7 -5t-5 -3.5v0v0h4q3 5 16 0v-1q0 -1 -3 -3t-3 -4l2 1q2 2 3 1v-1q1 -3 0 -4h-2q-2 0 -2 -1v0q0 -2 1.5 -6.5t0.5 -6.5t-6 -2q-4 -7 -4 -14q-1 -1 -2.5 -4t-2.5 -4
q-4 0 -4 -1q0 -2 4 -3q0 -1 -2 -2.5t-1 -3.5v-7q-3 -1 -3.5 -4t-2.5 -4q-1 -3 -4.5 -4l-3.5 -1q0 -1 -2 -4.5t-4.5 -6.5t-3.5 -3v0q-9 -3 -9 -6v-1v-1q-1 0 -6 -4t-8.5 -5t-7.5 0q-1 1 -3 -2.5t-3 -3.5q-2 -1 -4.5 1t-2.5 3q-1 1 -3 -2q-1 -3 -6 -6.5t-9 -3.5q-1 -1 -7 -2
t-10.5 -2t-4.5 -3v0q0 -5 -3 -5q-1 0 0 -3h3v-5q-3 -1 -6 -1v0l-2 2t-2 3l-1 2q-2 2 -2 3t1 3t1 3v0v0q-1 -1 -3.5 -2t-3.5 -1v0l-1 2q-5 6 -6 3q2 -1 2 -1.5t-2 -1.5h-4.5t-5.5 1q-3 0 -9 2.5t-5 5.5v0q0 1 0.5 3.5t0.5 3.5l-1 1q-12 1 -12 2q-1 0 -1.5 1.5t-1.5 1.5
q-1 1 -3 0q-4 -6 -7 -6v0q-4 -1 -5 -2q0 -2 -6 -2q0 1 -1 1.5l-1 0.5q-5 0 -5 -1q-1 -1 -4 0.5t-4 1.5q-2 -3 -3 -3l-3 0.5t-3 -0.5q-1 0 -1 -3q2 -2 1 -7q1 0 1.5 -3.5t-0.5 -3.5q0 -2 -4 -1v0q-5 1 -5 7q0 1 -1 3q-2 0 -3.5 -1.5t-2.5 -1.5v-1q-1 0 -1.5 0.5t-1.5 0.5
q0 1 -2 3l-3.5 3.5l-1.5 1.5h-2q-1 -1 -2 0q-1 0 -2 2v0q0 1 0.5 5.5t-0.5 5.5q-3 1 -4 2q-1 0 -2.5 5t-2.5 6q-2 1 -4.5 -0.5t-3.5 -1.5v0q-1 0 -3 7q0 1 2 10v1q0 1 2 2t4 2.5t3 2.5h1q1 1 2.5 10.5t0.5 11.5q0 1 -2.5 2.5t-2.5 2.5l-1 1v0q0 3 -3 8q-4 1 -4 -1
q-1 0 -1.5 -3.5t-2.5 -3.5q-1 -1 -2 0l-2.5 2.5l-2.5 2.5q-1 0 -4.5 2t-4.5 2v0q-3 -1 -7 -5q-3 -1 -9 -5.5t-8 -5.5q-3 -1 -10.5 -1.5t-11.5 1.5q0 1 1 8q-4 2 -4 5l-4 1h-1q-2 1 -6 4.5t-7 3.5l-2 -1t-4.5 -2t-2.5 -2q0 -5 -1 -6q-2 -1 -5 0q-1 0 0 10q-4 2 -8 1
q-1 0 -3 -1.5t-4 -1.5q-2 1 -6 5q-2 1 -10 1q-1 1 -8 10l-2.5 0.5t-3.5 2.5h-1q-3 4 -3 10q-1 0 -3.5 0.5t-3.5 1.5q-1 0 -2 2l-1 2q-1 1 -3.5 2t-3.5 2v1l-1.5 2t-2.5 3.5l-1 1.5q-13 -2 -16 2q-1 1 -1 6l-4.5 4.5t-4.5 4t-6 1.5q-1 0 -2 1q1 5 2 6v0q1 1 1 12v0v4
q2 0 4 -1t4 -1v0.5v0.5v0v5t-1 5t-1 5v0q-1 2 1 4.5t2 3.5q0 2 -1 3q-7 1 -5 10q1 3 -5.5 8.5t-8.5 3.5l-2 2q0 1 1 5.5t0 5.5q-5 3 -9 7l-1 1q-4 6 4 7q1 2 1 12v0q0 4 -5 2h-2q-4 3 -2 6q5 2 1 6q0 1 2 2q2 3 3 4q1 0 9 4.5t11 3.5q2 -1 3 -4t4 -3q9 8 24 8v0l3 0.5t5.5 1
l2.5 0.5q4 2 3 5q1 1 5.5 6.5t4.5 6.5q2 8 1 15v0q1 4 -1 5q-2 3 2 3q4 1 11.5 -0.5t9.5 -1.5h1v5t5 8q4 7 5 9v0q1 1 4 1q0 -2 7.5 -4t9.5 -2v0q3 0 4 3l-0.5 2t0 4.5l0.5 2.5v0q1 2 3 3.5t5.5 2t4.5 0.5v0q1 1 2.5 3.5t4.5 2.5q6 2 6 -3v0q0 -1 0.5 -2.5t0.5 -2.5
q-1 -1 4 -5t6 -4q5 -1 6 -4q0 -8 3 -10q2 -11 -1 -13v0q-6 -6 -1 -11q1 -1 10 -3q3 0 17.5 -7t13.5 -12v0q1 -7 4 -9v0v0q0 -5 1 -5v-1h1v-1q2 0 5.5 -0.5t5.5 -0.5q11 -3 12 -3v-1q4 0 11 0.5t10 0.5v0q4 -1 9.5 -5t7.5 -5q4 5 9 -2v0q3 0 10 -6q0 -1 2 -1q1 3 17 8.5
t16 7.5v0v0q3 1 9 0q6 -2 9 -1q1 3 9 10l3.5 3t5.5 5t1 2q-4 18 3 18v0v0q11 -6 11 -4q2 0 5.5 4t4.5 6q10 2 11 4q1 1 2.5 3t2 3.5t1.5 1.5q1 2 7 4v0v0q4 5 7 5h3t6.5 0.5t4.5 0.5v2.5v1.5q-2 5 -13 11q-1 0 -2.5 -1t-2.5 -1q-1 -1 -1.5 -2.5t-1.5 -2.5q-1 0 -5 1.5
t-5 0.5v0q-1 0 -4 -1t-6 -1q-1 3 -1 4q4 5 3 7q0 1 3 16h1q0 1 2 2q13 0 17 4l1 1q0 2 1 6t1 6v0q0 2 1.5 5.5t3 5.5l1.5 2q2 5 -6 9v1q1 4 3 6l8 2q3 6 15 6h1q1 0 3 -1t4 -1v0q7 1 11 -1v0v0v0v0q1 0 4 -4t6.5 -8t3.5 -5h1v-1v0v-1v0q6 -5 7 -6v0v0q0 -4 4 -7v0q2 -6 3 -6
v0h10q0 -1 4 -1q2 1 3 0h1l1 -1q1 -3 8 -5q0 -2 3 -6.5t5 -4.5v0q5 -1 13 7q7 12 16 12q2 0 2 -4.5t1 -6.5q1 0 2 -1.5l1 -1.5q-1 -3 -2.5 -15.5t0.5 -12.5z" />
    <glyph glyph-name="zmb01" unicode="&#xe621;" 
d="M962 402q-12 111 -74 214q-70 115 -198 212q-81 66 -164 66q-46 0 -98 -20q-32 -11 -70 -47t-59 -88l-27 -22q-68 -55 -114.5 -115.5t-67 -117.5t-27.5 -104.5t-3 -94.5q9 -114 69 -210.5t133 -138.5q95 -64 228 -64q107 0 203.5 43t160.5 119q56 67 86 157
q34 104 22 211zM490 -81q-118 0 -202 56l-1 1q-65 37 -118.5 123.5t-61.5 189.5q-3 42 3 84.5t25 94.5t61.5 107t105.5 105l33 27l4 4l2 5q17 45 48.5 75.5t54.5 38.5q44 16 82 16q66 0 135 -55q113 -86 177.5 -186t77.5 -208q6 -62 -3 -120.5t-29 -102t-35.5 -68
t-30.5 -42.5q-57 -68 -144 -106.5t-184 -38.5zM864 271q0 32 -23 55t-55 23q-16 0 -30 -6v0v0q-2 -1 -7 -3q-101 -40 -237 -40q-137 0 -239 41q-16 8 -35 8q-32 0 -55 -23t-23 -55q0 -15 6 -28q29 -118 125.5 -194.5t220.5 -76.5q125 0 221.5 77t125.5 196q5 13 5 26z
M512 367q67 0 114.5 12t50.5 29v2v4q-6 50 -53 84.5t-112 34.5t-112 -34.5t-53 -84.5v-4v-2q3 -17 50.5 -29t114.5 -12z" />
    <glyph glyph-name="fenlei01" unicode="&#xe64b;" 
d="M692 311q-25 24 -59.5 24t-59.5 -24v0q-24 -25 -24 -59.5t24 -59.5v0q25 -24 59.5 -24t59.5 24v0q24 25 24 59.5t-24 59.5v0zM512 876q-105 0 -177 -8t-129.5 -30t-91.5 -56t-56 -91.5t-30 -129.5t-8 -177t8 -177t30 -129.5t56 -91.5t91.5 -56t129.5 -30t177 -8t177 8
t129.5 30t91.5 56t56 91.5t30 129.5t8 177t-8 177t-30 129.5t-56 91.5t-91.5 56t-129.5 30t-177 8zM479 190q0 -17 -12 -29t-30 -12h-123q-17 0 -29 12t-12 29v123q0 17 12 29.5t29 12.5h123q18 0 30 -12.5t12 -29.5v-123zM479 456q0 -17 -12 -29.5t-30 -12.5h-123
q-17 0 -29 12.5t-12 29.5v123q0 17 12 29t29 12h123q18 0 30 -12t12 -29v-123v0zM529 579q0 17 12.5 29t29.5 12h123q17 0 29 -12t12 -29v-123q0 -17 -12 -30v0q-12 -12 -29 -12h-123q-17 0 -29.5 12.5t-12.5 29.5v123zM749.5 160.5q-5.5 -8.5 -13.5 -2.5l-31 20
q-30 -30 -73 -30t-73 30v0q-31 31 -31 73.5t31 73.5v0q30 30 73 30t74 -30v0q30 -31 30 -74q0 -31 -18 -58l29 -19q8 -5 2.5 -13.5z" />
    <glyph glyph-name="jinxiu" unicode="&#xe648;" 
d="M512 876q-105 0 -177 -8t-129.5 -30t-91.5 -56t-56 -91.5t-30 -129.5t-8 -177t8 -177t30 -129.5t56 -91.5t91.5 -56t129.5 -30t177 -8t177 8t129.5 30t91.5 56t56 91.5t30 129.5t8 177t-8 177t-30 129.5t-56 91.5t-91.5 56t-129.5 30t-177 8zM583 658q19 19 50 19
q7 0 14 -1q6 -1 12 -1q14 0 28 5.5t19 9.5t7 5q0 1 1 1h1q1 -1 1 -2q-4 -19 -25 -32q-16 -8 -38 -8q-10 0 -27 2q-8 1 -16 1q-19 0 -25 -3v0q-2 0 -2.5 1.5t0.5 2.5zM523 580q61 -3 79 -10l3 -4q1 0 1 -1t-1 -2h-1v-3l8 -11v-2l-1 -1l2 -5q1 -1 -1 -2q0 -1 -1 -1t-1 1l-1 1
v-1l2 -4q0 -1 -1 -2h-1l1 -3v-1v-1v-1q1 -1 0 -2l-1 -1v-1q1 -1 -1 -2h-1h-1l-1 1l-1 -1h-1l1 -1q0 -1 -1 -1.5l-1 -0.5h-1v-2q-1 -1 -2 -1v0l-1 -2q0 -2 -1 -2h-1h-1l-1 1l-1 -1h-1h-1h-1l-1 -2q-1 -1 -2 -1v0h-1l-6 4q-2 0 -1 2q1 1 2 1h1v2q0 2 2 2l5 1l3 2l1 3l1 5l2 6
l-3 3q-1 2 1 3l3 2l1 2l1 2l-1 3l-1 4v2h-3v-1l-2 -3h-2l1 -2q0 -1 -1 -2l-1 -2h-3l-1 -1l-1 -2l-1 -1h-1h-1l-2 2l-2 1l1 -3q0 -2 -2 -2v-1q-1 0 -2 1l-4 4v-3l5 -15l-5 -12q-1 -1 -2 -1v0q-1 0 -1 1l-6 7v0l-1 -1h-1l-5 3l-5 5h-2h-2l-2 -1l4 -21v-5q0 -2 -1 -2l-2 -1h-2
l-1 -7l4 -11q1 -2 -1 -3h-1l-1 1l-5 4l-1 -2q-1 -1 -2 -1l-7 1l-12 -1l-2 -2l1 -6q0 -2 -2 -2h-4l-1 -3l-5 -2l-4 -1l5 -13v-2q-1 -1 -2 -1l-1 1l-2 1l1 -5q0 -1 -2 -2l-2 -1l-1 -3q0 -1 -2 -1h-4l-8 9h-5l-1 -7v-7l7 -13q1 -1 0 -2l-1 -4l-1 -4q-1 -1 -2 -1v0h-1l-2 -2
l5 -9l7 -13v-5v-2h-2v0l-8 3l-9 10l-6 12l-13 23q-1 1 0 2l1 3q1 1 2 1v0q1 0 1 -1l7 -4l3 12l2 18l-18 27l-20 -15l-11 -12l-3 -7l4 -10l-3 -4h-8l-6 6l-6 13v16l-8 15l-12 -3l-10 -10l-5 -8l-17 -38l-10 -6v-11l-1 -6l-8 -9l-1 -8l5 -1l8 -2q1 0 1 -1v-2l-4 -9v-7v-9
q0 -1 -1 -2l-6 -3h-1.5h-0.5l-9 4l-4 12l4 16l2 22l3 18q8 29 18 46q3 7 10.5 19t30 35t47.5 33q47 19 99 24zM668 349q-2 -4 -6 -4q-6 0 -16 9q-1 0 -2.5 0.5t-2.5 0.5q4 -7 3 -11q-1 -6 -8 -6h-0.5h-0.5q-7 1 -11 8q-3 5 -7 6q-1 1 -2 1q-3 -3 -8 -3q-8 0 -14 6q-3 4 -2 9
q1 7 -6 10t-9 8q-1 4 0 7v2q1 2 3 2h2.5t2.5 -1h1q5 0 12 -3q2 -1 6 -4q2 -1 3 -2q2 -1 5 -2q6 -2 8.5 -4.5t6.5 -5.5l1 -1q2 -1 3 -1t4 2t5 2h1v0q5 0 9 -2q3 -2 6 -6q2 -3 3 -5q1 -1 4 -2l3 -3l1.5 -1.5t0.5 -1.5q3 0 1 -4zM703 500q-1 2 -0.5 3.5t1.5 1.5q3 0 10 -12
q8 -14 15 -33t13 -52t-2 -77.5t-32 -91.5q-25 -39 -50 -39q-11 0 -14 8q-4 10 1 18q5 7 13 7q3 0 5 -2q3 -2 4 -10q1 -5 2 -5q2 0 11 7q16 14 29.5 53.5t14.5 86.5q1 46 -5.5 86t-15.5 51zM575 230q-2 0 -4 1q-13 2 -21 20q-4 11 -9 15q-8 7 -18 7q-5 0 -10 -2q-2 0 -4 -1
q-6 -3 -10 -3q-3 0 -5 1q-11 6 -7 34q4 25 24 28q2 1 5 1h3q9 0 12 8q1 1 2 3q4 3 7 3v0q3 0 5 -1h1q2 0 5 2q2 3 3 3q5 3 14 3q3 0 6 -1q13 -1 18 -7q4 -5 3 -12l4 1l-2 1v2q0 3 1 5q3 5 9 5q2 0 4 -1q1 0 1 -1q7 -2 9 -13q0 -3 1 -5q1 -3 4 -11q5 -8 6 -14q3 -20 -4 -31
q-6 -8 -18 -15v-3q-18 -22 -35 -22zM583 222q0 -1 -1 -1l-1.5 -1.5t-0.5 -3.5v-3q-1 -4 -2 -6q-5 -6 -11 -6h-1q-6 1 -9 6q-4 7 -1 13q1 2 4 2v0q2 0 4 2l2 2q2 2 5 2h2q5 0 9 -3q2 -1 1 -3zM570 428q3 -10 -7 -14h-4q-9 0 -13 7q-3 4 -2 9q0 1 1 4q3 5 1 6q-1 1 -1 3
q-9 7 -9 14q1 10 12 10t11 -13q1 -5 2 -8q3 -4 3 -6q0 -3 -1 -6q6 -2 7 -6zM539 421q2 -1 1 -3q0 -1 -1 -1q0 -2 -1 -3q-4 -3 -4 -10q-1 -3 -1 -4q10 4 19 4q4 0 7 -1q1 0 2 -2v-1v-2q0 -2 -2 -2q-9 -3 -11 -13q-2 -5 -5 -7t-7 -2q-8 0 -11 7q-2 3 -2 7q-3 -1 -8 -1
q-1 0 -2 1q-11 0 -16 7q-8 9 0 16q2 2 6 3q3 1 4 2q3 2 9 7l5 3q3 2 6 2t9 -5q2 -1 3 -2zM538.5 366q-0.5 -1 -1.5 -2h-3h-2v-1h-1h-15l-7 2l-6 5l-6 8q-2 1 -2 2q-1 1 -1 2q1 1 2 1q0 1 1 1v-1l10 -4v0l9 -5h3l10 -2l5 -2l4 -2q1 -1 0.5 -2zM478 692h5q13 0 16 -12
q6 -23 -30 -44q-25 -14 -40 -14q-13 0 -17 7q0 3 0.5 4t1.5 1q3 -1 5 -1t6 1q15 2 43 18q7 3 12 9t4 8h-1.5t-1.5 -1h-4q-10 0 -12 9q-1 10 13 15zM246 251h-1t-2 1q-2 6 -7.5 19t-13 46.5t-8.5 64.5v6q1 25 6 48q8 37 29 74t35 53t26 27q-2 0 -6 -2q-9 -4 -18 -4
q-23 0 -30 22q-5 15 6 23q7 5 13 5q11 0 14 -10q2 -9 -6 -15q-3 -1 -6 -1h-3q0 -10 10 -10q15 0 54 26q4 3 5 4q2 1 13 10q32 28 49 37q6 4 11 4q13 -1 13 -16q0 -6 -1 -8q-3 -9 -9 -9q-4 0 -8 6q0 1 -1 1q-4 0 -13 -7q-7 -5 -16 -12t-33.5 -30.5t-44.5 -47t-39 -58
t-26 -66.5q-6 -30 -7.5 -59.5t0.5 -49t6 -37t6.5 -24t3.5 -8.5t-1 -3zM805 291q-1 -2 -3 -2q-3 2 -3 10q2 82 -25 129l2 -5q5 -21 7.5 -37t3.5 -46.5t-9.5 -67.5t-30.5 -77q-30 -56 -93.5 -89.5t-140.5 -33.5q-88 0 -155 44t-98 121q-15 42 -18 83.5t3.5 74t20 63t27.5 51
t30 38t23 23.5t10 9q15 12 25 12q3 0 4 -3q3 -6 -28 -34q-31 -27 -53 -75t-27 -108t22 -117q37 -78 122 -117q34 -17 90 -17q30 0 64 5q73 24 119 75t55 120q9 62 -6 116t-42 80q-32 17 -41 60v1q-3 5 -7.5 11t-15 18t-23.5 20t-27 8q-2 0 -5 -1v0q-1 0 -1.5 1.5t0.5 2.5
q12 8 30 8q29 0 62.5 -19t52.5 -42q29 -36 48 -79t26 -77.5t8.5 -66t0 -48.5t-3.5 -22z" />
    <glyph glyph-name="c-shouye" unicode="&#xe522;" horiz-adv-x="1025" 
d="M659 -128q-30 0 -51.5 21.5t-21.5 52.5v107v3q0 30 -22 52t-52 22t-52 -22t-22 -52l1 -3v-107q0 -31 -22 -52.5t-52 -21.5h-150q-31 0 -52.5 21.5t-21.5 52.5v371h-92q-20 0 -34.5 16t-14.5 39q0 1 1 2v2q-4 25 13 43l463 463q14 14 34 14q22 0 36 -14l463 -463
q18 -18 13 -43v0l1 -2q0 -24 -14.5 -40.5t-34.5 -16.5h-92v-371q0 -31 -21.5 -52.5t-52.5 -21.5h-150v0zM512 169q47 0 80.5 -33t33.5 -80v-94q0 -21 14.5 -35.5t35.5 -14.5h117q21 0 35.5 14.5t14.5 35.5v395h114q22 0 26 10q5 14 -24 43l-447 447l-447 -447
q-29 -29 -24 -43q4 -10 26 -10h114v-395q0 -21 14.5 -35.5t35.5 -14.5h117q21 0 35.5 14.5t14.5 35.5v94q0 47 33.5 80t80.5 33z" />
    <glyph glyph-name="c-fenlei" unicode="&#xe521;" horiz-adv-x="1025" 
d="M20 788q-8 0 -14 6t-6 14.5t6 14t14 5.5h348q9 0 15 -5.5t6 -14t-6 -14.5t-15 -6h-348v0zM14 355q-6 0 -10 6t-4 14.5t4 14.5t10 6h253q6 0 10 -6t4 -14.5t-4 -14.5t-10 -6h-253v0zM17 -60q-7 0 -12 5.5t-5 14t5 14.5t12 6h905q7 0 12 -6t5 -14t-5 -14t-12 -6h-905z
M1004 94q-8 0 -13 5l-149 133q-8 8 -8 17q0 13 12 19q51 48 75 111.5t18 131.5q-11 114 -95 190.5t-198 76.5q-14 0 -28 -1q-121 -11 -199 -105t-67 -216q11 -114 94.5 -190.5t198.5 -76.5q14 0 28 1q36 4 70 16q8 5 15 5q10 0 16 -8q5 -8 3.5 -16.5t-8.5 -13.5
q-44 -18 -92 -23q-16 -1 -32 -1q-130 0 -225.5 87t-107.5 217q-13 138 75.5 244.5t226.5 119.5q16 2 32 2q130 0 225.5 -87t107.5 -217q7 -73 -17.5 -142.5t-76.5 -122.5l-1 -1l133 -120q7 -6 7 -14t-5 -14q-6 -7 -15 -7z" />
    <glyph glyph-name="c-wode-copy" unicode="&#xe541;" 
d="M1011 -128h-37q0 91 -38.5 178t-106.5 146q-6 6 -31 22t-27 17q-41 28 -121 -10q-5 -2 -24.5 -11.5t-28.5 -13.5t-25.5 -10.5t-31 -9t-28.5 -2.5q-23 0 -50 7.5t-43.5 14t-44.5 19.5q-23 11 -38.5 17t-32 10t-29 2.5t-22.5 -8.5q-33 -23 -55 -43q-69 -59 -107.5 -146.5
t-38.5 -178.5h-38q0 107 46 203q44 93 123 161q18 16 38 30q41 29 96 17q29 -6 86 -32q74 -35 110 -35q35 0 110 35q56 27 85 33q55 11 96 -18q22 -15 41 -32q79 -68 122 -160q45 -96 45 -202v0zM512 300q-128 0 -219 86q-92 88 -92 212t92 211q91 87 219 87t219 -87
q92 -87 92 -211t-92 -212q-91 -86 -219 -86v0zM512 856q-113 0 -192.5 -75.5t-79.5 -182.5t79.5 -183t192.5 -76t192.5 76t79.5 183t-79.5 182.5t-192.5 75.5v0z" />
    <glyph glyph-name="c-gouwuche" unicode="&#xe680;" horiz-adv-x="1025" 
d="M905.5 -79q-18.5 0 -31.5 13t-13 31.5t13 32t31.5 13.5t31.5 -13.5t13 -32t-13 -31.5t-31.5 -13zM364.5 -79q-18.5 0 -31.5 13t-13 31.5t13 32t31.5 13.5t31.5 -13.5t13 -32t-13 -31.5t-31.5 -13zM411 118q-52 0 -74.5 18t-35.5 61q-38 132 -163 575l-10 35h-108
q-8 0 -14 5.5t-6 14t6 14.5t14 6h123q15 0 19 -15q109 -385 178 -624q9 -30 21.5 -40t49.5 -10h593q8 0 14 -6t6 -14t-6 -14t-14 -6h-593v0zM328 283l602 86q37 6 45.5 16.5t8.5 46.5v149q0 22 -16 37.5t-38 15.5h-590q-9 0 -14.5 6t-5.5 14.5t6 14.5t14 6h590
q39 0 66.5 -27.5t27.5 -66.5v-149q0 -49 -17.5 -72t-70.5 -31l-597 -85z" />
    <glyph glyph-name="zhuangtai-likai" unicode="&#xe617;" 
d="M918 555q-34 78 -95 140q-60 60 -139 94q-81 35 -171 35q-92 0 -172 -35q-79 -34 -140 -94q-59 -59 -94 -140q-35 -80 -35 -171t35 -171q34 -78 94 -140q60 -60 140 -95q80 -34 172 -34q90 0 171 34q79 34 139 95q59 59 95 140q34 80 34 171t-34 171zM814 306h-324
q-25 0 -40 15t-15 39v324q0 25 15 39.5t39.5 14.5t39.5 -14.5t15 -39.5v-270h270q24 0 39 -15t15 -39t-15 -39t-39 -15z" />
  </font>
</defs>
</svg>
